<svg xmlns="http://www.w3.org/2000/svg" viewBox="0 0 500 500"><g id="background-complete"><rect y="382.4" width="500" height="0.25" style="fill:#ebebeb"></rect><rect x="416.78" y="398.49" width="33.12" height="0.25" style="fill:#ebebeb"></rect><rect x="322.53" y="401.21" width="8.69" height="0.25" style="fill:#ebebeb"></rect><rect x="396.59" y="389.21" width="19.19" height="0.25" style="fill:#ebebeb"></rect><rect x="52.46" y="390.89" width="43.19" height="0.25" style="fill:#ebebeb"></rect><rect x="104.56" y="390.89" width="6.33" height="0.25" style="fill:#ebebeb"></rect><rect x="131.47" y="395.11" width="93.68" height="0.25" style="fill:#ebebeb"></rect><path d="M237,337.8H43.91a5.71,5.71,0,0,1-5.7-5.71V60.66A5.71,5.71,0,0,1,43.91,55H237a5.71,5.71,0,0,1,5.71,5.71V332.09A5.71,5.71,0,0,1,237,337.8ZM43.91,55.2a5.46,5.46,0,0,0-5.45,5.46V332.09a5.46,5.46,0,0,0,5.45,5.46H237a5.47,5.47,0,0,0,5.46-5.46V60.66A5.47,5.47,0,0,0,237,55.2Z" style="fill:#ebebeb"></path><path d="M453.31,337.8H260.21a5.72,5.72,0,0,1-5.71-5.71V60.66A5.72,5.72,0,0,1,260.21,55h193.1A5.71,5.71,0,0,1,459,60.66V332.09A5.71,5.71,0,0,1,453.31,337.8ZM260.21,55.2a5.47,5.47,0,0,0-5.46,5.46V332.09a5.47,5.47,0,0,0,5.46,5.46h193.1a5.47,5.47,0,0,0,5.46-5.46V60.66a5.47,5.47,0,0,0-5.46-5.46Z" style="fill:#ebebeb"></path><polygon points="193.17 71.82 204.09 80.86 207.78 67.39 193.17 71.82" style="fill:#ebebeb"></polygon><polygon points="212.66 66.01 224.21 73.64 225.34 61.02 212.66 66.01" style="fill:#ebebeb"></polygon><polygon points="105.31 78.98 113.54 96.58 123.14 79.22 105.31 78.98" style="fill:#ebebeb"></polygon><polygon points="124.47 79.32 137.66 93.93 145.32 78.13 124.47 79.32" style="fill:#ebebeb"></polygon><polygon points="148.23 78.04 160.32 90.13 165.25 75.99 148.23 78.04" style="fill:#ebebeb"></polygon><polygon points="170.25 75.65 185.19 87.13 189.04 72.85 170.25 75.65" style="fill:#ebebeb"></polygon><path d="M167.06,76.68c-45.3,5.47-91,2.18-91.72,2.13l.15-2c1.2.09,120.5,8.67,163.86-25.25l1.23,1.58C223.65,66.38,195.42,73.25,167.06,76.68Z" style="fill:#e0e0e0"></path><polygon points="305.75 71.82 294.82 80.86 291.14 67.39 305.75 71.82" style="fill:#ebebeb"></polygon><polygon points="286.26 66.01 274.71 73.64 273.58 61.02 286.26 66.01" style="fill:#ebebeb"></polygon><polygon points="393.61 78.98 385.37 96.58 375.78 79.22 393.61 78.98" style="fill:#ebebeb"></polygon><polygon points="374.44 79.32 361.25 93.93 353.6 78.13 374.44 79.32" style="fill:#ebebeb"></polygon><polygon points="350.69 78.04 338.6 90.13 333.67 75.99 350.69 78.04" style="fill:#ebebeb"></polygon><polygon points="328.66 75.65 313.73 87.13 309.87 72.85 328.66 75.65" style="fill:#ebebeb"></polygon><path d="M331.86,76.68c45.3,5.47,91,2.18,91.72,2.13l-.15-2c-1.2.09-120.5,8.67-163.86-25.25l-1.23,1.58C275.27,66.38,303.49,73.25,331.86,76.68Z" style="fill:#e0e0e0"></path><polygon points="166.82 381.5 178.69 322.17 187.4 322.17 199.26 381.5 191.35 381.5 183.84 345.11 175.53 381.5 166.82 381.5" style="fill:#e0e0e0"></polygon><polygon points="359.26 381.5 347.4 322.17 338.69 322.17 326.82 381.5 334.74 381.5 342.25 345.11 350.56 381.5 359.26 381.5" style="fill:#e0e0e0"></polygon><path d="M370.47,340.44,164.2,361.11a8.32,8.32,0,0,1-9.09-7.44L146,262.34a8.3,8.3,0,0,1,7.44-9.09l206.26-20.66a8.31,8.31,0,0,1,9.1,7.43l9.15,91.33A8.31,8.31,0,0,1,370.47,340.44Z" style="fill:#e0e0e0"></path><rect x="211.74" y="188.89" width="100.4" height="215.91" rx="4.31" transform="translate(531.19 6.63) rotate(84.28)" style="fill:#ebebeb;opacity:0.7000000000000001;isolation:isolate"></rect><path d="M198.82,279.29a.66.66,0,0,1,.06.48,17.55,17.55,0,0,1-3.47,6.73,8.3,8.3,0,0,1-5.55,2.74,5.86,5.86,0,0,1-4.64-1.23,6.46,6.46,0,0,1-2-4.4,12.93,12.93,0,0,1,.05-2.83c.12-1,.32-2.21.6-3.52a7,7,0,0,1-4-1.72,5.7,5.7,0,0,1-1.75-3.69,8.85,8.85,0,0,1,.29-3.16,9.93,9.93,0,0,1,1.31-3,.6.6,0,0,1,.46-.26.64.64,0,0,1,.48.14.68.68,0,0,1,.11.88,7.31,7.31,0,0,0-1.11,2.47,7.82,7.82,0,0,0-.27,2.73,4.4,4.4,0,0,0,1.47,3A6,6,0,0,0,184.2,276a27,27,0,0,1,3.26-7.95c1.44-2.33,3.14-3.58,5.08-3.78a3.55,3.55,0,0,1,3,.9,4.56,4.56,0,0,1,1.31,3,6.17,6.17,0,0,1-1.22,4.43,10.73,10.73,0,0,1-3.95,3.23,14.74,14.74,0,0,1-5.14,1.5,11.08,11.08,0,0,1-1.34,0c-.29,1.4-.5,2.58-.62,3.53a11.6,11.6,0,0,0-.06,2.61,5.09,5.09,0,0,0,1.62,3.56,4.7,4.7,0,0,0,3.62.92,7.18,7.18,0,0,0,4.88-2.44,16.06,16.06,0,0,0,3-6.11.59.59,0,0,1,.3-.39.62.62,0,0,1,.48-.06A.7.7,0,0,1,198.82,279.29ZM186.29,276a13.79,13.79,0,0,0,4.57-1.28,9.74,9.74,0,0,0,3.56-2.75,5.07,5.07,0,0,0,1.13-3.74,3.45,3.45,0,0,0-.86-2.09,2.22,2.22,0,0,0-1.93-.63,4.84,4.84,0,0,0-3.13,1.83,15.9,15.9,0,0,0-2.51,4,28.08,28.08,0,0,0-1.62,4.69A5.41,5.41,0,0,0,186.29,276Z" style="fill:#e0e0e0"></path><path d="M209,282.18a3.43,3.43,0,0,1-2.36,1.33,3.54,3.54,0,0,1-2.39-.59,9.2,9.2,0,0,1-1.81,2.19,3.73,3.73,0,0,1-2,1c-1.76.17-2.74-.76-3-2.81a15.62,15.62,0,0,1,1.77-8.36,7.88,7.88,0,0,1,1.8-2.59,3.69,3.69,0,0,1,2.16-1,2.89,2.89,0,0,1,2.34.7,3.39,3.39,0,0,1,1,2.24,11.84,11.84,0,0,1-.31,3.52,19.39,19.39,0,0,1-1.33,4,1.87,1.87,0,0,0,1.61.48,2.44,2.44,0,0,0,1.69-1.07,9.8,9.8,0,0,0,1.34-2.94.6.6,0,0,1,.2-.32.77.77,0,0,1,.34-.14.67.67,0,0,1,.49.15.58.58,0,0,1,.24.42.94.94,0,0,1,0,.25A10.73,10.73,0,0,1,209,282.18Zm-4.82-3.57a.63.63,0,0,1,.15.56,1.68,1.68,0,0,0-.05.4,1.53,1.53,0,0,0,0,.31,16,16,0,0,0,.82-3,9.45,9.45,0,0,0,.16-2.56,1.93,1.93,0,0,0-.65-1.39,1.71,1.71,0,0,0-1.34-.37,2.45,2.45,0,0,0-1.55.86,7.58,7.58,0,0,0-1.32,2,14.55,14.55,0,0,0-1.66,7.62c.13,1.24.63,1.81,1.52,1.72a2.7,2.7,0,0,0,1.61-.91,10.11,10.11,0,0,0,1.53-2.07,4.34,4.34,0,0,1-.39-1.44,6.37,6.37,0,0,1,0-1.44.55.55,0,0,1,.18-.37.68.68,0,0,1,.95,0Z" style="fill:#e0e0e0"></path><path d="M222.91,277.12a.79.79,0,0,1,0,.28,22.18,22.18,0,0,1-2.32,5.22,3.62,3.62,0,0,1-2.6,1.72,2,2,0,0,1-1.7-.54,2.86,2.86,0,0,1-.74-1.8,7.17,7.17,0,0,1,.11-2.09c.14-.75.35-1.66.63-2.71s.51-2,.63-2.64a6.3,6.3,0,0,0,.09-1.82,1.4,1.4,0,0,0-1.74-1.42c-.83.09-1.67.9-2.53,2.45a20.71,20.71,0,0,0-1.93,4.75l-1.52,6.23a.65.65,0,0,1-.28.41.72.72,0,0,1-.5.09.63.63,0,0,1-.4-.28.65.65,0,0,1-.08-.5l1.75-7.07,1.61-6.52a.66.66,0,0,1,1.13-.26.57.57,0,0,1,.13.57l-.18.63a4,4,0,0,1,2.68-1.77,2.53,2.53,0,0,1,3.14,2.57,7.34,7.34,0,0,1-.11,2c-.13.73-.35,1.71-.65,2.95-.27,1-.47,1.88-.59,2.54a6.22,6.22,0,0,0-.12,1.77,1.82,1.82,0,0,0,.31.95.83.83,0,0,0,.73.23,2.62,2.62,0,0,0,1.86-1.46,24.72,24.72,0,0,0,1.95-4.6.64.64,0,0,1,.54-.45.79.79,0,0,1,.28,0A.61.61,0,0,1,222.91,277.12Z" style="fill:#e0e0e0"></path><path d="M235.46,275.89a1.1,1.1,0,0,1,0,.28,17.1,17.1,0,0,1-3,5.9,12.16,12.16,0,0,1-5,3.55,14.66,14.66,0,0,1-2.06,5,4.1,4.1,0,0,1-2.9,1.9,2.87,2.87,0,0,1-2.22-.59,2.91,2.91,0,0,1-1-2.06q-.3-3,4.74-4.49a23.85,23.85,0,0,0,2.35-.73L227,282a4.1,4.1,0,0,1-2.74,1.75,2.07,2.07,0,0,1-2-.74,5,5,0,0,1-.8-2.51,16.32,16.32,0,0,1,.54-4.78,14.57,14.57,0,0,1,2-4.63,4.24,4.24,0,0,1,3-2.13,2.89,2.89,0,0,1,3,1.39l.36-1.29a.52.52,0,0,1,.2-.34.62.62,0,0,1,.34-.15.86.86,0,0,1,.5.12.56.56,0,0,1,.26.42,1.23,1.23,0,0,1,0,.28q-.35,1.14-1.68,6.18l-1.16,4.69-.9,3.83a9.87,9.87,0,0,0,3.93-3.18,17.09,17.09,0,0,0,2.45-5.09.67.67,0,0,1,.54-.46,1.3,1.3,0,0,1,.28,0A.6.6,0,0,1,235.46,275.89Zm-10.92,13.94a10.16,10.16,0,0,0,1.45-3.69c-.83.27-1.37.43-1.63.5a8.48,8.48,0,0,0-3,1.29,2.19,2.19,0,0,0-.88,1.79,1.72,1.72,0,0,0,.58,1.19,1.65,1.65,0,0,0,1.26.35A3.08,3.08,0,0,0,224.54,289.83Zm2.21-9.81a35.68,35.68,0,0,0,2-5.76l.5-1.8a2.78,2.78,0,0,0-.72-1.77,1.73,1.73,0,0,0-1.44-.5,3.47,3.47,0,0,0-2.37,2,15.44,15.44,0,0,0-1.61,4.21,13.29,13.29,0,0,0-.44,4A4.26,4.26,0,0,0,223,282a.93.93,0,0,0,1,.45C225.13,282.33,226,281.52,226.75,280Z" style="fill:#e0e0e0"></path><path d="M246.63,274.74a.78.78,0,0,1,0,.28,20.15,20.15,0,0,1-2.27,5.19,3.72,3.72,0,0,1-2.65,1.75h0a1.92,1.92,0,0,1-1.66-.54,2.81,2.81,0,0,1-.75-1.79,7.86,7.86,0,0,1,.1-2c.08-.48.29-1.48.62-3s.56-2.47.67-2.85c-1-.21-1.69-.38-2.18-.51a10.08,10.08,0,0,1-1.25-.38c0,.21-.36,1.15-.95,2.83L235,277.25a.56.56,0,0,1-.51.42.92.92,0,0,1-.31,0,.65.65,0,0,1-.42-.54,2.05,2.05,0,0,1,0-.28l1.91-5.53.27-.94a3.15,3.15,0,0,1-1.81-2.4,1.93,1.93,0,0,1,.41-1.5,1.78,1.78,0,0,1,1.25-.66,1.6,1.6,0,0,1,1.34.42,2.15,2.15,0,0,1,.62,1.41,2.47,2.47,0,0,1,0,.6,6.86,6.86,0,0,1-.12.7q-.09.38-.15.69a23,23,0,0,0,2.87.79c.48.09.88.18,1.19.25a.74.74,0,0,1,.45.84c-.15.55-.41,1.64-.79,3.29s-.58,2.65-.63,3a8.38,8.38,0,0,0-.11,1.7c.09.85.44,1.24,1,1.18a2.67,2.67,0,0,0,1.94-1.5,23.49,23.49,0,0,0,1.88-4.55.65.65,0,0,1,.53-.46,1.23,1.23,0,0,1,.28,0A.58.58,0,0,1,246.63,274.74Zm-10.28-7.54a.41.41,0,0,0-.36-.13.51.51,0,0,0-.52.63,1.56,1.56,0,0,0,.27.73,2,2,0,0,0,.6.6,4.47,4.47,0,0,0,.2-1.31A.81.81,0,0,0,236.35,267.2Z" style="fill:#e0e0e0"></path><path d="M258.88,273.52a1.3,1.3,0,0,1,0,.28l0,.09c-.44,1.31-.85,2.41-1.22,3.28a8.76,8.76,0,0,1-1.49,2.38,3.34,3.34,0,0,1-2.19,1.18,2,2,0,0,1-1.69-.53,2.92,2.92,0,0,1-.75-1.8q-1.56,2.73-3.54,2.93a2.16,2.16,0,0,1-1.95-.72,4.16,4.16,0,0,1-.87-2.31,14,14,0,0,1,.48-4.8,15.23,15.23,0,0,1,2.06-4.77,4.38,4.38,0,0,1,3.06-2.19,2.85,2.85,0,0,1,2.93,1.33l.38-1.41a.55.55,0,0,1,.2-.32.64.64,0,0,1,.36-.14.62.62,0,0,1,.67.79L254.15,271l-.24,1c-.44,1.78-.75,3.14-.94,4.08a7.31,7.31,0,0,0-.21,2.2,1.63,1.63,0,0,0,.31,1,.79.79,0,0,0,.73.24,2.78,2.78,0,0,0,2.08-1.73,31.21,31.21,0,0,0,1.71-4.24l0-.09a.62.62,0,0,1,.53-.45.78.78,0,0,1,.28,0A.61.61,0,0,1,258.88,273.52Zm-9.09,5.16a12,12,0,0,0,1.46-2.89q.57-1.64,1.23-3.93l.54-2a2.45,2.45,0,0,0-.74-1.57,1.78,1.78,0,0,0-1.43-.45,3.51,3.51,0,0,0-2.38,2,15.21,15.21,0,0,0-1.65,4.2,13.28,13.28,0,0,0-.45,4,4.05,4.05,0,0,0,.44,1.61,1,1,0,0,0,1,.49A2.88,2.88,0,0,0,249.79,278.68Z" style="fill:#e0e0e0"></path><path d="M265.19,272.88a.78.78,0,0,1,0,.28,20.65,20.65,0,0,1-2.42,5.08,4.36,4.36,0,0,1-3.2,1.93,2,2,0,0,1-1.72-.55,2.72,2.72,0,0,1-.78-1.78,10.65,10.65,0,0,1,.23-2.63,37,37,0,0,1,.87-3.8l1.12-4.5-1.92.2a.64.64,0,0,1-.47-.14.66.66,0,0,1-.23-.44.68.68,0,0,1,.14-.46.61.61,0,0,1,.44-.24l2.34-.24q.19-.75.57-2.34c.26-1.06.44-1.84.55-2.34a.59.59,0,0,1,.57-.48.64.64,0,0,1,.56.21.6.6,0,0,1,.13.57c-.07.34-.22,1-.44,1.9s-.42,1.72-.58,2.35l2-.21a.62.62,0,0,1,.47.16.64.64,0,0,1,.23.42.6.6,0,0,1-.14.47.6.6,0,0,1-.43.23l-2.5.25-.51,2.2c-.05.15-.28,1.07-.71,2.77s-.75,3.16-.9,4a7.4,7.4,0,0,0-.15,2,1.46,1.46,0,0,0,.35.91.83.83,0,0,0,.74.26,3.41,3.41,0,0,0,2.52-1.71,19.48,19.48,0,0,0,2-4.44.68.68,0,0,1,.57-.43,1.1,1.1,0,0,1,.28,0A.64.64,0,0,1,265.19,272.88Z" style="fill:#e0e0e0"></path><path d="M277.37,271.66a.78.78,0,0,1,0,.28,19.94,19.94,0,0,1-2.26,5.18,3.65,3.65,0,0,1-2.63,1.76c-1.25.12-2.05-.52-2.4-1.94a5.33,5.33,0,0,1-1.5,1.73,3.88,3.88,0,0,1-1.93.79h0a2.83,2.83,0,0,1-2.25-.58,3.37,3.37,0,0,1-1-2.28,8.85,8.85,0,0,1,.29-2.72c.27-1.14.89-3.53,1.88-7.16l.38-1.36a.54.54,0,0,1,.2-.31.69.69,0,0,1,.34-.15.62.62,0,0,1,.57.22.59.59,0,0,1,.12.57l-1,3.85c-.74,2.82-1.19,4.55-1.34,5.21a5.39,5.39,0,0,0-.15,1.72c.13,1.25.75,1.83,1.86,1.71a2.83,2.83,0,0,0,1.78-1,7.1,7.1,0,0,0,1.4-2.47,31,31,0,0,0,.95-3c.31-1.12.76-2.85,1.37-5.18l.48-1.89a.54.54,0,0,1,.2-.31.7.7,0,0,1,.93.07.55.55,0,0,1,.13.57c-.28,1.07-.53,2.08-.77,3l-.46,1.76c-.42,1.6-.73,3-.95,4.18a9.93,9.93,0,0,0-.26,2.42,1.66,1.66,0,0,0,.31.95.78.78,0,0,0,.72.23,2.69,2.69,0,0,0,1.92-1.51,23.47,23.47,0,0,0,1.9-4.55.51.51,0,0,1,.19-.31.67.67,0,0,1,.34-.14,1.1,1.1,0,0,1,.28,0A.64.64,0,0,1,277.37,271.66Z" style="fill:#e0e0e0"></path><path d="M283.63,271a.79.79,0,0,1,0,.28,20.74,20.74,0,0,1-2.42,5.07,4.36,4.36,0,0,1-3.2,1.93,2,2,0,0,1-1.73-.55,2.74,2.74,0,0,1-.77-1.77,6.33,6.33,0,0,1,.07-1.58c.09-.62.27-1.59.55-2.9l1.22-5,.65-2.71,1.11-4.77a.65.65,0,0,1,.3-.39.83.83,0,0,1,.48-.09.63.63,0,0,1,.4.3.58.58,0,0,1,.08.48l-1.12,4.77c-.28,1.22-.51,2.13-.67,2.74l-1.19,5a17.58,17.58,0,0,0-.61,4.08,1.46,1.46,0,0,0,.36.91.84.84,0,0,0,.74.27,3.43,3.43,0,0,0,2.52-1.71,20.26,20.26,0,0,0,2-4.45.68.68,0,0,1,.57-.43,1.3,1.3,0,0,1,.28,0A.62.62,0,0,1,283.63,271Z" style="fill:#e0e0e0"></path><path d="M295.87,269.81a.79.79,0,0,1,0,.28l0,.09c-.44,1.32-.85,2.41-1.22,3.29a8.65,8.65,0,0,1-1.5,2.37,3.31,3.31,0,0,1-2.18,1.19,2,2,0,0,1-1.69-.54,2.81,2.81,0,0,1-.75-1.8c-1.05,1.83-2.23,2.8-3.54,2.94a2.16,2.16,0,0,1-1.95-.73,4,4,0,0,1-.87-2.3,14.12,14.12,0,0,1,.48-4.81,15,15,0,0,1,2.06-4.76,4.29,4.29,0,0,1,3.06-2.19,2.81,2.81,0,0,1,2.92,1.33l.38-1.42a.54.54,0,0,1,.2-.31.81.81,0,0,1,.37-.15.62.62,0,0,1,.66.8l-1.11,4.22-.24,1c-.43,1.79-.75,3.15-.94,4.09a8,8,0,0,0-.21,2.2,1.82,1.82,0,0,0,.31.95.81.81,0,0,0,.73.23,2.74,2.74,0,0,0,2.08-1.73,28.62,28.62,0,0,0,1.71-4.23l0-.1a.66.66,0,0,1,.54-.45,1.14,1.14,0,0,1,.28,0A.6.6,0,0,1,295.87,269.81ZM286.79,275a12.43,12.43,0,0,0,1.46-2.89q.57-1.62,1.23-3.93l.53-2a2.4,2.4,0,0,0-.74-1.56,1.8,1.8,0,0,0-1.42-.46,3.48,3.48,0,0,0-2.38,2,15.21,15.21,0,0,0-1.65,4.2,12.87,12.87,0,0,0-.45,3.95,4,4,0,0,0,.44,1.62.93.93,0,0,0,1,.48A2.82,2.82,0,0,0,286.79,275Z" style="fill:#e0e0e0"></path><path d="M302.19,269.18a.79.79,0,0,1,0,.28,20.56,20.56,0,0,1-2.42,5.07,4.36,4.36,0,0,1-3.2,1.93,2.07,2.07,0,0,1-1.73-.54,2.79,2.79,0,0,1-.77-1.78,11,11,0,0,1,.22-2.63,36,36,0,0,1,.88-3.8l1.11-4.5-1.91.19a.6.6,0,0,1-.47-.14.6.6,0,0,1-.23-.43.6.6,0,0,1,.14-.46.59.59,0,0,1,.43-.25l2.34-.23c.14-.51.33-1.29.58-2.34l.55-2.35a.59.59,0,0,1,.56-.48.62.62,0,0,1,.56.22.58.58,0,0,1,.14.57c-.07.33-.22,1-.44,1.9s-.42,1.71-.58,2.34l2-.2a.6.6,0,0,1,.48.15.64.64,0,0,1,.09.9.61.61,0,0,1-.44.22l-2.49.25-.51,2.2c-.05.15-.29,1.07-.71,2.77s-.75,3.17-.9,4a8,8,0,0,0-.16,1.95,1.52,1.52,0,0,0,.35.91.86.86,0,0,0,.75.27,3.43,3.43,0,0,0,2.52-1.71,20,20,0,0,0,2-4.45.68.68,0,0,1,.57-.43,1.3,1.3,0,0,1,.28,0A.64.64,0,0,1,302.19,269.18Z" style="fill:#e0e0e0"></path><path d="M307.64,268.28a.64.64,0,0,1,.14.34.79.79,0,0,1,0,.28,25.19,25.19,0,0,1-2.14,5,3.68,3.68,0,0,1-2.81,2,2,2,0,0,1-1.67-.53,2.53,2.53,0,0,1-.76-1.65,15.46,15.46,0,0,1,.54-4.52c.47-2,1.09-4.48,1.89-7.39a.53.53,0,0,1,.19-.34.67.67,0,0,1,.34-.14.75.75,0,0,1,.49.11.5.5,0,0,1,.24.4l0,.25-.57,2.3q-1.31,5.34-1.6,6.77a7.77,7.77,0,0,0-.22,2.28,1.74,1.74,0,0,0,.31.95.79.79,0,0,0,.73.23,2.73,2.73,0,0,0,2.07-1.69,31.77,31.77,0,0,0,1.77-4.37.68.68,0,0,1,.57-.46l.25,0A.58.58,0,0,1,307.64,268.28Zm-4-8.91a1,1,0,0,1-.39-.7,1,1,0,0,1,.24-.76,1,1,0,0,1,.72-.38,1,1,0,0,1,.75.23,1,1,0,0,1,.38.7,1,1,0,0,1-.23.76,1,1,0,0,1-.7.37A1,1,0,0,1,303.68,259.37Z" style="fill:#e0e0e0"></path><path d="M317.85,271.28a3.5,3.5,0,0,1-2.37,1.32,3.54,3.54,0,0,1-2.39-.59,9.2,9.2,0,0,1-1.81,2.19,3.7,3.7,0,0,1-2,1c-1.77.18-2.75-.76-2.95-2.8a15.67,15.67,0,0,1,1.77-8.37,8,8,0,0,1,1.79-2.59,3.81,3.81,0,0,1,2.17-1,3,3,0,0,1,2.34.7,3.37,3.37,0,0,1,1,2.25,11.46,11.46,0,0,1-.31,3.51,18.62,18.62,0,0,1-1.33,4,1.85,1.85,0,0,0,1.61.49,2.46,2.46,0,0,0,1.69-1.08,9.44,9.44,0,0,0,1.35-2.94.5.5,0,0,1,.2-.31.61.61,0,0,1,.33-.14.68.68,0,0,1,.74.57,1.28,1.28,0,0,1,0,.25A10.74,10.74,0,0,1,317.85,271.28ZM313,267.71a.58.58,0,0,1,.14.55c0,.13,0,.26-.05.41v.3a16,16,0,0,0,.83-3,9.88,9.88,0,0,0,.15-2.57,2,2,0,0,0-.64-1.39,1.78,1.78,0,0,0-1.34-.37,2.47,2.47,0,0,0-1.56.86,7.4,7.4,0,0,0-1.31,2,14.46,14.46,0,0,0-1.66,7.62c.12,1.23.63,1.81,1.52,1.72a2.78,2.78,0,0,0,1.61-.92,9.59,9.59,0,0,0,1.53-2.07,3.86,3.86,0,0,1-.39-1.43,5.45,5.45,0,0,1,0-1.45.51.51,0,0,1,.17-.37.76.76,0,0,1,.42-.18A.61.61,0,0,1,313,267.71Z" style="fill:#e0e0e0"></path><path d="M331.78,266.21a1.23,1.23,0,0,1,0,.28,22.27,22.27,0,0,1-2.31,5.22,3.58,3.58,0,0,1-2.61,1.72,2,2,0,0,1-1.69-.54,2.87,2.87,0,0,1-.75-1.79,7.6,7.6,0,0,1,.11-2.1c.14-.75.35-1.65.64-2.7s.5-2,.62-2.64a6.72,6.72,0,0,0,.1-1.82,1.41,1.41,0,0,0-1.74-1.42c-.83.08-1.68.9-2.53,2.44a20.89,20.89,0,0,0-1.93,4.75l-1.53,6.23a.59.59,0,0,1-.28.41.76.76,0,0,1-.5.1.7.7,0,0,1-.39-.28.58.58,0,0,1-.08-.5l1.74-7.08,1.62-6.51a.59.59,0,0,1,.56-.49.62.62,0,0,1,.56.22.58.58,0,0,1,.14.57l-.18.63a4.05,4.05,0,0,1,2.67-1.77,2.54,2.54,0,0,1,3.14,2.57,7.36,7.36,0,0,1-.1,2c-.14.72-.35,1.71-.66,2.94-.26,1-.46,1.88-.59,2.55a6.11,6.11,0,0,0-.11,1.76,1.63,1.63,0,0,0,.31.95.77.77,0,0,0,.73.23,2.61,2.61,0,0,0,1.86-1.46,26,26,0,0,0,1.95-4.59.65.65,0,0,1,.53-.46,1.16,1.16,0,0,1,.28,0A.6.6,0,0,1,331.78,266.21Z" style="fill:#e0e0e0"></path><path d="M339.68,269.57a5.2,5.2,0,0,1-1.81,2.08,5.86,5.86,0,0,1-2.72,1,4.62,4.62,0,0,1-2.36-.37,4.53,4.53,0,0,1-1.83-1.44,4.24,4.24,0,0,1-.84-2.17,5.38,5.38,0,0,1,.91-3.42,3.71,3.71,0,0,1,2.76-1.52,2.67,2.67,0,0,1,2.11.69,3.37,3.37,0,0,1,1.12,2.09.64.64,0,0,1-.14.47.66.66,0,0,1-.44.23.63.63,0,0,1-.7-.58,1.94,1.94,0,0,0-.64-1.22A1.5,1.5,0,0,0,334,265a2.54,2.54,0,0,0-1.91,1.12,3.85,3.85,0,0,0-.65,2.42,3,3,0,0,0,1.2,2.17,3.37,3.37,0,0,0,2.43.66,4.31,4.31,0,0,0,2.94-1.43,4.08,4.08,0,0,0,.93-3.13,5.49,5.49,0,0,0-.61-1.83c-.33-.59-1-1.59-2-3a6.56,6.56,0,0,0-.54.76.6.6,0,0,1-.46.29.64.64,0,0,1-.74-.6.77.77,0,0,1,.11-.41c.33-.46.63-.87.92-1.23a5.14,5.14,0,0,1-.65-2,3.33,3.33,0,0,1,.45-2.12,1.91,1.91,0,0,1,1.47-1,1.31,1.31,0,0,1,1.07.34,2,2,0,0,1,.55,1.1,4.08,4.08,0,0,1-.29,1.85,8.1,8.1,0,0,1-1.05,1.93l.86,1.26a24.34,24.34,0,0,1,1.59,2.52,6,6,0,0,1,.59,2A5.68,5.68,0,0,1,339.68,269.57ZM337,258.34a2.68,2.68,0,0,0,.16-1.13c0-.21-.09-.3-.21-.29s-.26.12-.43.32a1.83,1.83,0,0,0-.32,1.38,3.69,3.69,0,0,0,.25,1A6,6,0,0,0,337,258.34Z" style="fill:#e0e0e0"></path><path d="M355.73,320.34,174.66,338.48a3,3,0,0,1-3.25-2.66l-3.07-30.7a3,3,0,0,1,2.65-3.25l181.07-18.14a3,3,0,0,1,3.25,2.66l3.08,30.7A3,3,0,0,1,355.73,320.34Z" style="fill:#f0f0f0"></path><path d="M201.42,320.57a4,4,0,0,1-.82,3.26,3.33,3.33,0,0,1-1.67,1L199,326l-2,.2-.12-1.15a3.43,3.43,0,0,1-2.34-1.45,5.86,5.86,0,0,1-1-2.54l2.24-.39a3.41,3.41,0,0,0,.9,1.9,1.2,1.2,0,0,0,1,.33,1.46,1.46,0,0,0,1.16-.88,1.9,1.9,0,0,0,.13-1.06,2.93,2.93,0,0,0-1.06-1.84l-2.31-1.77a8.77,8.77,0,0,1-1.76-1.74,4.58,4.58,0,0,1-.84-2.27,4.21,4.21,0,0,1,.35-2.26,3.13,3.13,0,0,1,1.92-1.78l-.1-1,2-.2.1,1a3.35,3.35,0,0,1,1.65.64,4,4,0,0,1,1.49,2.56l-2.23.63a2.82,2.82,0,0,0-.7-1.45,1.11,1.11,0,0,0-1-.28,1.09,1.09,0,0,0-.93.67,2.33,2.33,0,0,0-.16,1.18,3.59,3.59,0,0,0,1.15,2.1,9.19,9.19,0,0,0,1.13.88,14.19,14.19,0,0,1,1.19.85,8.75,8.75,0,0,1,1.51,1.58A4.85,4.85,0,0,1,201.42,320.57Z" style="fill:#e0e0e0"></path><path d="M207.08,324.05l-1.2-12-2,.2-.16-1.64a3.57,3.57,0,0,0,1.55-.81,3.26,3.26,0,0,0,1-1.42l1.64-.17,1.57,15.63Z" style="fill:#e0e0e0"></path><path d="M218.62,319.29a3.75,3.75,0,1,1-7.47.75l-.85-8.53a3.57,3.57,0,0,1,.83-2.75,3.74,3.74,0,0,1,6.63,2ZM215.31,311a1.36,1.36,0,0,0-1.49-1.22,1.32,1.32,0,0,0-.92.49,1.35,1.35,0,0,0-.29,1l.85,8.54a1.34,1.34,0,0,0,.49.92,1.36,1.36,0,0,0,2.22-1.19Z" style="fill:#e0e0e0"></path><path d="M228.11,318.34a3.55,3.55,0,0,1-.83,2.75,3.74,3.74,0,0,1-6.63-2l-.86-8.53a3.74,3.74,0,0,1,3.37-4.11,3.56,3.56,0,0,1,2.75.83,3.61,3.61,0,0,1,1.35,2.53Zm-3.3-8.33a1.34,1.34,0,0,0-.49-.92,1.37,1.37,0,0,0-1.92.19,1.34,1.34,0,0,0-.29,1l.85,8.54a1.34,1.34,0,0,0,.49.92,1.36,1.36,0,0,0,1.91-.19,1.35,1.35,0,0,0,.31-1Z" style="fill:#e0e0e0"></path><path d="M237.61,317.39a3.75,3.75,0,0,1-7.47.75l-.85-8.53a3.74,3.74,0,0,1,3.37-4.11,3.57,3.57,0,0,1,2.75.83,3.69,3.69,0,0,1,1.35,2.53Zm-3.3-8.33a1.37,1.37,0,0,0-1.5-1.22,1.28,1.28,0,0,0-.91.49,1.39,1.39,0,0,0-.3,1l.86,8.54a1.34,1.34,0,0,0,.49.92,1.28,1.28,0,0,0,1,.3,1.36,1.36,0,0,0,1.22-1.49Z" style="fill:#e0e0e0"></path><path d="M239.35,318.45l2.36-.24.23,2.36-2.35.23Z" style="fill:#e0e0e0"></path><path d="M250.67,316.08a3.55,3.55,0,0,1-.83,2.75,3.74,3.74,0,0,1-6.63-2l-.86-8.53a3.74,3.74,0,0,1,3.37-4.11,3.56,3.56,0,0,1,2.75.83,3.61,3.61,0,0,1,1.35,2.53Zm-3.3-8.33a1.34,1.34,0,0,0-.49-.92A1.37,1.37,0,0,0,245,307a1.34,1.34,0,0,0-.29,1l.85,8.54a1.34,1.34,0,0,0,.49.92,1.36,1.36,0,0,0,1.91-.19,1.35,1.35,0,0,0,.31-1Z" style="fill:#e0e0e0"></path><path d="M260.17,315.13a3.75,3.75,0,0,1-7.47.75l-.85-8.53a3.74,3.74,0,0,1,3.37-4.11,3.57,3.57,0,0,1,2.75.83,3.69,3.69,0,0,1,1.35,2.53Zm-3.3-8.33a1.37,1.37,0,0,0-1.5-1.22,1.28,1.28,0,0,0-.91.49,1.39,1.39,0,0,0-.3,1l.86,8.54a1.34,1.34,0,0,0,.49.92,1.28,1.28,0,0,0,1,.3,1.36,1.36,0,0,0,1.22-1.49Z" style="fill:#e0e0e0"></path><path d="M269.67,314.18a3.75,3.75,0,0,1-7.47.75l-.85-8.53a3.76,3.76,0,0,1,6.12-3.28,3.64,3.64,0,0,1,1.34,2.53Zm-3.3-8.33a1.39,1.39,0,0,0-1.5-1.23,1.31,1.31,0,0,0-.91.5,1.29,1.29,0,0,0-.3,1l.86,8.54a1.3,1.3,0,0,0,.49.92,1.27,1.27,0,0,0,1,.3,1.34,1.34,0,0,0,.92-.49,1.31,1.31,0,0,0,.3-1Z" style="fill:#e0e0e0"></path><path d="M271.41,315.24l2.36-.24.23,2.36-2.35.23Z" style="fill:#e0e0e0"></path><path d="M282.73,312.87a3.55,3.55,0,0,1-.83,2.75,3.76,3.76,0,0,1-5.28.52,3.57,3.57,0,0,1-1.35-2.52l-.86-8.53a3.74,3.74,0,0,1,3.37-4.11,3.57,3.57,0,0,1,2.75.83,3.69,3.69,0,0,1,1.35,2.53Zm-3.3-8.33a1.37,1.37,0,0,0-1.5-1.22,1.28,1.28,0,0,0-.91.49,1.39,1.39,0,0,0-.3,1l.86,8.54a1.34,1.34,0,0,0,.49.92,1.28,1.28,0,0,0,1,.3,1.36,1.36,0,0,0,1.22-1.49Z" style="fill:#e0e0e0"></path><path d="M292.23,311.92a3.75,3.75,0,0,1-7.47.75l-.85-8.53a3.76,3.76,0,0,1,6.12-3.28,3.64,3.64,0,0,1,1.34,2.53Zm-3.3-8.33a1.39,1.39,0,0,0-1.5-1.23,1.31,1.31,0,0,0-.91.5,1.29,1.29,0,0,0-.3,1l.86,8.54a1.3,1.3,0,0,0,.49.92,1.27,1.27,0,0,0,1,.3,1.34,1.34,0,0,0,.92-.49,1.31,1.31,0,0,0,.3-1Z" style="fill:#e0e0e0"></path><path d="M301.73,311a3.75,3.75,0,1,1-7.47.74l-.85-8.52a3.58,3.58,0,0,1,.83-2.76,3.66,3.66,0,0,1,2.53-1.36,3.76,3.76,0,0,1,4.1,3.37Zm-3.31-8.33a1.26,1.26,0,0,0-.49-.92,1.35,1.35,0,0,0-1-.31,1.31,1.31,0,0,0-.91.5,1.29,1.29,0,0,0-.3,1l.85,8.53a1.38,1.38,0,0,0,.49.93,1.33,1.33,0,0,0,1,.3,1.31,1.31,0,0,0,.92-.5,1.29,1.29,0,0,0,.3-1Z" style="fill:#e0e0e0"></path><path d="M303.47,312l2.35-.24.24,2.36-2.35.23Z" style="fill:#e0e0e0"></path><path d="M314.79,309.66a3.75,3.75,0,0,1-7.47.75l-.85-8.53a3.76,3.76,0,0,1,6.12-3.28,3.64,3.64,0,0,1,1.34,2.53Zm-3.3-8.33a1.39,1.39,0,0,0-1.5-1.23,1.31,1.31,0,0,0-.91.5,1.29,1.29,0,0,0-.3,1l.86,8.54a1.3,1.3,0,0,0,.49.92,1.27,1.27,0,0,0,1,.3,1.34,1.34,0,0,0,.92-.49,1.31,1.31,0,0,0,.3-1Z" style="fill:#e0e0e0"></path><path d="M324.29,308.71a3.75,3.75,0,1,1-7.47.74l-.85-8.52a3.58,3.58,0,0,1,.83-2.76,3.66,3.66,0,0,1,2.53-1.36,3.76,3.76,0,0,1,4.1,3.37ZM321,300.38a1.26,1.26,0,0,0-.49-.92,1.35,1.35,0,0,0-1-.31,1.31,1.31,0,0,0-.91.5,1.29,1.29,0,0,0-.3,1l.85,8.53a1.38,1.38,0,0,0,.49.93,1.33,1.33,0,0,0,1,.3,1.31,1.31,0,0,0,.92-.5,1.29,1.29,0,0,0,.3-1Z" style="fill:#e0e0e0"></path><path d="M333.78,307.75a3.58,3.58,0,0,1-.83,2.76,3.76,3.76,0,0,1-5.28.52,3.59,3.59,0,0,1-1.35-2.53l-.86-8.52a3.75,3.75,0,0,1,6.12-3.28,3.59,3.59,0,0,1,1.35,2.53Zm-3.3-8.33a1.34,1.34,0,0,0-.49-.92,1.36,1.36,0,0,0-1-.3,1.29,1.29,0,0,0-.92.5,1.31,1.31,0,0,0-.29,1l.85,8.54a1.35,1.35,0,0,0,2.4.73,1.34,1.34,0,0,0,.31-1Z" style="fill:#e0e0e0"></path><path d="M82.28,156.06c-3.63,0-7.51-1-10.09-4.58-2.71-3.75-2.59-7.31-1.41-9.85a13.61,13.61,0,0,1-2-2,7.93,7.93,0,0,1-1.41-8.27,8.86,8.86,0,0,1,1-1.79c-4.12-3.07-5.88-7.46-4.77-12.17a9.38,9.38,0,0,1,1.59-3.57c-4-8.22.34-22.49.53-23.13l1.92.58c0,.15-4,13.45-.93,21.06a7.35,7.35,0,0,1,5.72-1c3.49.67,7.4,3.47,7,5.93-.19,1.27-1.44,2.67-6.29,2.14a9.46,9.46,0,0,1-6.84-3.7,8.64,8.64,0,0,0-.79,2.15c-1.19,5.06,1.64,8.35,4.15,10.19a8.5,8.5,0,0,1,4.65-2.29,6,6,0,0,1,5.81,2.63c1.35,1.86.79,3,.34,3.55-1.58,1.84-6.07,1-9.5-.75-.33-.16-.65-.34-1-.52a7.94,7.94,0,0,0-.78,1.43,6,6,0,0,0,1.1,6.26,12.17,12.17,0,0,0,1.51,1.53l.22-.27c2.13-2.39,5.31-3.12,7.75-1.77,1.81,1,2,2.27,1.89,2.93a3.67,3.67,0,0,1-2.88,2.79,8.55,8.55,0,0,1-6.36-.86c-.83,2-.77,4.66,1.34,7.56,5,6.92,16.88,2.09,17,2l.77,1.85A26.85,26.85,0,0,1,82.28,156.06Zm-8.76-15a6.49,6.49,0,0,0,4.74.64c.91-.27,1.42-.76,1.46-1.09s-.31-.64-.88-1c-1.63-.91-3.75-.36-5.27,1.35Zm-2.1-11.84.47.24c3.51,1.78,6.57,1.81,7.07,1.23.06-.07,0-.43-.44-1.09a4.07,4.07,0,0,0-4-1.8A6.21,6.21,0,0,0,71.42,129.2Zm-3.78-15a7.45,7.45,0,0,0,5.73,3.31c3.26.35,4.08-.28,4.1-.45.11-.74-2.13-3-5.43-3.67A5.3,5.3,0,0,0,67.64,114.15Z" style="fill:#e0e0e0"></path><path d="M51.33,158.17c-5.24-1.69-7.71-7.59-7.79-12.36a12.87,12.87,0,0,1,.59-4.24,11.21,11.21,0,0,1-1.77-9.19A12.54,12.54,0,0,1,44,128.26a16.47,16.47,0,0,1,.14-8.8,11.12,11.12,0,0,1,1.92-3.87c-.16-8.18,10.67-18,11.21-18.46l1.33,1.49c-.11.11-9.2,8.34-10.42,15.26a5.38,5.38,0,0,1,7.49,4.22A4.56,4.56,0,0,1,53,122.85c-1.1.37-3.28.48-5.63-3a7.78,7.78,0,0,1-.71-1.33,11.2,11.2,0,0,0-.58,1.55,15.54,15.54,0,0,0-.44,6.38,5.15,5.15,0,0,1,3-1.3,4.39,4.39,0,0,1,4.4,2.54,4.23,4.23,0,0,1-.62,4.62c-1.13,1.17-2.91,1.38-4.9.57A5.47,5.47,0,0,1,45,130.59a11.22,11.22,0,0,0-.72,2.21,9.47,9.47,0,0,0,.79,6.67,6.57,6.57,0,0,1,3.29-2.71c2.22-.8,4.2-.31,5.29,1.3a4.56,4.56,0,0,1-.32,5.45c-.67.75-2.64,2.31-6.41.36a9.07,9.07,0,0,1-1.18-.73,11.9,11.9,0,0,0-.24,2.64c.07,4.08,2.1,9.1,6.4,10.49Zm-4.87-17a7.06,7.06,0,0,0,1.42,1c1.8.93,3.22,1,4,.09a2.58,2.58,0,0,0,.15-3c-.56-.83-1.61-1-3-.54A4.74,4.74,0,0,0,46.46,141.13Zm-.21-12.51A4.12,4.12,0,0,0,48.32,131c1.21.49,2.17.45,2.71-.1a2.28,2.28,0,0,0,.24-2.42,2.4,2.4,0,0,0-2.48-1.36A3.76,3.76,0,0,0,46.25,128.62Zm1.89-12.3a5.74,5.74,0,0,0,.9,2.37c1.16,1.73,2.4,2.58,3.32,2.27a2.7,2.7,0,0,0,1.35-2.71,3,3,0,0,0-2.78-2.77A3.12,3.12,0,0,0,48.14,116.32Z" style="fill:#e0e0e0"></path><path d="M97.08,97.43C78.34,117.66,51,83.37,63,67.32S116.1,76.89,97.08,97.43Z" style="fill:#e0e0e0"></path><path d="M60.5,112c-27.38-3.35-15.61-45.62,4.44-45.3S88.28,115.36,60.5,112Z" style="fill:#ebebeb"></path><path d="M270.74,71.67C259,84.36,241.82,62.86,249.34,52.8S282.66,58.8,270.74,71.67Z" style="fill:#e0e0e0"></path><path d="M229.72,71.67c11.75,12.69,28.92-8.81,21.4-18.87S217.8,58.8,229.72,71.67Z" style="fill:#e0e0e0"></path><path d="M253.32,80.12c17.16-2.1,9.78-28.6-2.78-28.39S235.9,82.25,253.32,80.12Z" style="fill:#ebebeb"></path><path d="M415.69,156.06a26.85,26.85,0,0,1-9.3-1.87l.76-1.85c.12,0,12,4.88,17-2,2.1-2.9,2.17-5.58,1.34-7.56a8.55,8.55,0,0,1-6.36.86,3.67,3.67,0,0,1-2.88-2.79c-.07-.66.08-1.92,1.89-2.93,2.44-1.35,5.62-.62,7.75,1.77l.22.27a12.13,12.13,0,0,0,1.5-1.53,6,6,0,0,0,1.1-6.26,7.32,7.32,0,0,0-.77-1.43c-.31.18-.63.36-1,.52-3.43,1.74-7.92,2.6-9.5.75-.45-.52-1-1.69.34-3.55a6,6,0,0,1,5.81-2.63,8.53,8.53,0,0,1,4.65,2.29c2.51-1.84,5.34-5.13,4.14-10.19a8.65,8.65,0,0,0-.78-2.15,9.48,9.48,0,0,1-6.84,3.7c-4.86.54-6.1-.87-6.29-2.14-.37-2.46,3.54-5.26,7-5.93a7.35,7.35,0,0,1,5.72,1c3.11-7.61-.88-20.91-.93-21.06l1.91-.58c.2.64,4.49,14.91.54,23.13a9.38,9.38,0,0,1,1.59,3.57c1.11,4.71-.66,9.1-4.77,12.17a8.86,8.86,0,0,1,1,1.79,7.93,7.93,0,0,1-1.41,8.27,13.17,13.17,0,0,1-2,2c1.19,2.54,1.31,6.1-1.4,9.85C423.2,155,419.31,156.06,415.69,156.06Zm5.14-16.86a3.53,3.53,0,0,0-1.71.43c-.56.32-.9.68-.87,1s.55.82,1.46,1.09a6.49,6.49,0,0,0,4.74-.64l-.05-.06A4.88,4.88,0,0,0,420.83,139.2Zm2-11.46a4.07,4.07,0,0,0-3.39,1.84c-.47.66-.5,1-.44,1.09.49.58,3.56.55,7.07-1.23l.47-.24a6.25,6.25,0,0,0-3.15-1.42A4.92,4.92,0,0,0,422.84,127.74Zm4.51-14.55a7.27,7.27,0,0,0-1.42.15c-3.3.63-5.55,2.93-5.43,3.67,0,.17.83.8,4.1.45a7.45,7.45,0,0,0,5.73-3.31A4.73,4.73,0,0,0,427.35,113.19Z" style="fill:#e0e0e0"></path><path d="M446.64,158.17l-.62-1.9c4.31-1.39,6.34-6.41,6.41-10.49a11.9,11.9,0,0,0-.24-2.64,9.8,9.8,0,0,1-1.18.73c-3.77,1.95-5.74.39-6.41-.36a4.56,4.56,0,0,1-.32-5.45c1.09-1.61,3.07-2.1,5.29-1.3a6.57,6.57,0,0,1,3.29,2.71,9.52,9.52,0,0,0,.79-6.67,10.61,10.61,0,0,0-.73-2.21,5.4,5.4,0,0,1-2.52,2.24c-2,.81-3.77.6-4.9-.57a4.23,4.23,0,0,1-.62-4.62,4.39,4.39,0,0,1,4.4-2.54,5.14,5.14,0,0,1,3,1.29,15.33,15.33,0,0,0-.43-6.37,12.66,12.66,0,0,0-.58-1.55,7.78,7.78,0,0,1-.71,1.33c-2.35,3.53-4.53,3.43-5.63,3a4.56,4.56,0,0,1-2.69-4.75,5.38,5.38,0,0,1,7.49-4.22c-1.22-6.92-10.31-15.15-10.43-15.26l1.34-1.49c.54.49,11.36,10.28,11.21,18.46a11.12,11.12,0,0,1,1.92,3.87,16.57,16.57,0,0,1,.14,8.8,12.54,12.54,0,0,1,1.67,4.12,11.21,11.21,0,0,1-1.77,9.19,12.87,12.87,0,0,1,.59,4.24C454.35,150.58,451.88,156.48,446.64,158.17Zm.92-19.79a1.84,1.84,0,0,0-1.62.8,2.58,2.58,0,0,0,.15,3c.78.87,2.2.84,4-.09a7.06,7.06,0,0,0,1.42-1,4.77,4.77,0,0,0-2.62-2.49A4.05,4.05,0,0,0,447.56,138.38ZM449,127.09a2.33,2.33,0,0,0-2.29,1.37,2.26,2.26,0,0,0,.24,2.42c.54.55,1.5.59,2.7.1a4.05,4.05,0,0,0,2.07-2.36,3.72,3.72,0,0,0-2.53-1.52Zm-1.33-11.67a3.34,3.34,0,0,0-.62.06,3,3,0,0,0-2.78,2.77,2.7,2.7,0,0,0,1.35,2.71c.92.31,2.16-.54,3.32-2.27a5.74,5.74,0,0,0,.9-2.37A3.15,3.15,0,0,0,447.66,115.42Z" style="fill:#e0e0e0"></path><path d="M402.38,97.43c18.74,20.23,46.12-14.06,34.13-30.11S383.36,76.89,402.38,97.43Z" style="fill:#e0e0e0"></path><path d="M439,112c27.38-3.35,15.61-45.62-4.44-45.3S411.18,115.36,439,112Z" style="fill:#ebebeb"></path><polygon points="271.38 137.28 267.41 142.43 275.34 146 271.38 137.28" style="fill:#f0f0f0"></polygon><polygon points="297.09 244.84 302.19 240.81 295.38 235.41 297.09 244.84" style="fill:#f0f0f0"></polygon><polygon points="232.98 131.05 232.6 124.56 224.27 127.06 232.98 131.05" style="fill:#f0f0f0"></polygon><polygon points="257.1 237.64 253.13 242.79 261.06 246.36 257.1 237.64" style="fill:#f0f0f0"></polygon><polygon points="251.54 168.22 257.89 168.61 257.1 175.75 249.56 173.77 251.54 168.22" style="fill:#f0f0f0"></polygon><polygon points="272.34 210.85 269.33 216.45 263.17 212.75 268.12 206.73 272.34 210.85" style="fill:#f0f0f0"></polygon><polygon points="232.91 253.33 239.26 253.73 238.47 260.87 230.93 258.88 232.91 253.33" style="fill:#f0f0f0"></polygon><path d="M286.05,178.53l4,.79s-5.95,4-3.17,7.15-2,5.95-2,5.95L281.29,190s3.18-2.38,1.59-5.56S286.05,178.53,286.05,178.53Z" style="fill:#f0f0f0"></path><polygon points="294.16 126.78 290.52 132.17 298.66 135.25 294.16 126.78" style="fill:#f0f0f0"></polygon><polygon points="323.38 112.53 325.59 106.42 316.95 105.42 323.38 112.53" style="fill:#f0f0f0"></polygon><polygon points="321.73 136.89 322.9 130.63 329.89 132.29 327.01 139.53 321.73 136.89" style="fill:#f0f0f0"></polygon><path d="M328.5,170.79l-4,.44s4.47-5.58.86-7.76.08-6.27.08-6.27l4.12,1.18s-2.3,3.23.18,5.77S328.5,170.79,328.5,170.79Z" style="fill:#f0f0f0"></path><path d="M262.18,271.77l4,.79s-5.95,4-3.17,7.14-2,5.95-2,5.95l-3.57-2.38s3.18-2.38,1.59-5.55S262.18,271.77,262.18,271.77Z" style="fill:#f0f0f0"></path><polygon points="319.34 258.21 315.37 263.37 323.31 266.94 319.34 258.21" style="fill:#f0f0f0"></polygon><polygon points="333.38 213.46 339.72 213.86 338.93 221 331.39 219.02 333.38 213.46" style="fill:#f0f0f0"></polygon><path d="M292,269.53l4,.8s-5.95,4-3.17,7.14-2,5.95-2,5.95L287.24,281s3.17-2.38,1.58-5.56S292,269.53,292,269.53Z" style="fill:#f0f0f0"></path><path d="M262.68,119.37l-2.49.59s1.06-5.29-2-7.12-2-5.72-2-5.72l3.1.9a6.34,6.34,0,0,0,2.05,5.26C263.74,115.49,262.68,119.37,262.68,119.37Z" style="fill:#f0f0f0"></path><path d="M235.64,215.68l-3.74,1.52s2.78-6.59-1.28-7.71-1.62-6.06-1.62-6.06l4.29,0S232,207.19,235,209,235.64,215.68,235.64,215.68Z" style="fill:#f0f0f0"></path><path d="M219.41,177.14a3,3,0,1,1-3-3A3,3,0,0,1,219.41,177.14Z" style="fill:#f0f0f0"></path><path d="M295.49,104.39a3,3,0,1,1-3-3A3,3,0,0,1,295.49,104.39Z" style="fill:#f0f0f0"></path><polygon points="201.47 129.2 196.73 133.66 204 138.45 201.47 129.2" style="fill:#f0f0f0"></polygon><polygon points="187.05 238.41 190.2 232.72 181.82 230.37 187.05 238.41" style="fill:#f0f0f0"></polygon><polygon points="147.38 247.22 145.71 253.5 154.41 253.73 147.38 247.22" style="fill:#f0f0f0"></polygon><polygon points="151.09 216.61 150.48 222.94 143.37 221.91 145.6 214.45 151.09 216.61" style="fill:#f0f0f0"></polygon><path d="M180.79,183.09l4-.8s-3.95,6-.16,7.81.47,6.26.47,6.26l-4.22-.82s2-3.42-.68-5.73S180.79,183.09,180.79,183.09Z" style="fill:#f0f0f0"></path><polygon points="149.24 179.17 152.74 173.68 144.52 170.82 149.24 179.17" style="fill:#f0f0f0"></polygon><polygon points="172.36 155.34 166 155.5 166.16 148.32 173.84 149.63 172.36 155.34" style="fill:#f0f0f0"></polygon><path d="M166.51,113.35l-4-.44s5.57-4.47,2.53-7.39,1.45-6.1,1.45-6.1l3.77,2s-3,2.65-1.1,5.68S166.51,113.35,166.51,113.35Z" style="fill:#f0f0f0"></path><path d="M199.72,261.24a3,3,0,1,1,3.22,2.7A3,3,0,0,1,199.72,261.24Z" style="fill:#f0f0f0"></path><path d="M64.89,226.23a9.72,9.72,0,0,1-11.31-5L48.3,210.78,51,209.43l5.28,10.42a6.76,6.76,0,0,0,9,3.06l9.12-4.34a6.8,6.8,0,0,0,3.38-8.68l-2-5,2.78-1.12,2,5a9.8,9.8,0,0,1-4.87,12.52l-9.13,4.34A11,11,0,0,1,64.89,226.23Z" style="fill:#e6e6e6"></path><polygon points="100.46 195.01 95.14 197.41 93.22 198.29 87.34 200.95 85.41 201.82 79.82 204.35 77.88 205.23 72.71 207.57 70.75 208.46 65.79 210.7 63.85 211.58 58.88 213.82 56.95 214.7 51.96 216.96 50.05 217.82 48.67 218.44 43.12 211.77 47.2 203.6 48.66 200.69 52.57 192.86 54.03 189.95 57.95 182.13 59.4 179.22 63.31 171.38 64.78 168.47 67.93 162.17 69.58 163.84 72.14 166.42 79.87 174.24 82.45 176.83 90.56 185.03 93.16 187.65 100.46 195.01" style="fill:#f0f0f0"></polygon><polygon points="43.12 211.77 37.81 214.34 45.41 223.45 48.67 218.44 43.12 211.77" style="fill:#e6e6e6"></polygon><polygon points="48.66 200.69 51.96 216.96 50.05 217.82 47.2 203.6 48.66 200.69" style="fill:#e6e6e6"></polygon><polygon points="54.03 189.95 58.88 213.82 56.95 214.7 52.57 192.86 54.03 189.95" style="fill:#e6e6e6"></polygon><polygon points="59.4 179.22 65.79 210.7 63.85 211.58 57.95 182.13 59.4 179.22" style="fill:#e6e6e6"></polygon><polygon points="64.78 168.47 72.71 207.57 70.75 208.46 63.31 171.38 64.78 168.47" style="fill:#e6e6e6"></polygon><polygon points="72.14 166.42 79.82 204.35 77.88 205.23 69.58 163.84 72.14 166.42" style="fill:#e6e6e6"></polygon><polygon points="82.45 176.83 87.34 200.95 85.41 201.82 79.87 174.24 82.45 176.83" style="fill:#e6e6e6"></polygon><polygon points="93.16 187.65 95.14 197.41 93.22 198.29 90.56 185.03 93.16 187.65" style="fill:#e6e6e6"></polygon><polygon points="75.91 157.9 78.61 140.04 82.16 140.97 75.91 157.9" style="fill:#e6e6e6"></polygon><polygon points="88.29 162.54 103.44 138.75 107.96 142.7 88.29 162.54" style="fill:#e6e6e6"></polygon><polygon points="99.17 172.65 121.92 157.98 124.02 163.56 99.17 172.65" style="fill:#e6e6e6"></polygon><polygon points="101.9 181.47 127.46 178.89 127.54 185.57 101.9 181.47" style="fill:#e6e6e6"></polygon><path d="M66.89,311a9.71,9.71,0,0,1-7.43-9.89l.46-11.68,3,.12-.46,11.68a6.77,6.77,0,0,0,6.35,7l10.08.65A6.8,6.8,0,0,0,86.06,303l.66-5.37,3,.37L89,303.36a9.79,9.79,0,0,1-10.35,8.57l-10.08-.65A9.78,9.78,0,0,1,66.89,311Z" style="fill:#e6e6e6"></path><polygon points="113.16 301.07 107.34 300.58 105.24 300.41 98.81 299.87 96.7 299.69 90.59 299.18 88.46 299.01 82.8 298.53 80.66 298.35 75.24 297.89 73.11 297.72 67.68 297.26 65.57 297.09 60.11 296.63 58.02 296.46 56.51 296.33 54.92 287.79 62.46 282.65 65.14 280.81 72.38 275.88 75.07 274.05 82.29 269.13 84.98 267.29 92.22 262.35 94.91 260.51 100.73 256.55 101.36 258.81 102.34 262.31 105.29 272.9 106.28 276.42 109.38 287.53 110.37 291.09 113.16 301.07" style="fill:#f0f0f0"></polygon><polygon points="54.91 287.79 49.03 287.45 51.23 299.11 56.51 296.32 54.91 287.79" style="fill:#e6e6e6"></polygon><polygon points="65.14 280.81 60.11 296.63 58.02 296.46 62.46 282.65 65.14 280.81" style="fill:#e6e6e6"></polygon><polygon points="75.07 274.05 67.68 297.26 65.57 297.09 72.38 275.88 75.07 274.05" style="fill:#e6e6e6"></polygon><polygon points="84.98 267.29 75.24 297.89 73.11 297.72 82.29 269.13 84.98 267.29" style="fill:#e6e6e6"></polygon><polygon points="94.91 260.51 82.8 298.53 80.66 298.35 92.22 262.35 94.91 260.51" style="fill:#e6e6e6"></polygon><polygon points="102.34 262.31 90.59 299.18 88.46 299.01 101.36 258.81 102.34 262.31" style="fill:#e6e6e6"></polygon><polygon points="106.28 276.42 98.81 299.87 96.7 299.69 105.29 272.9 106.28 276.42" style="fill:#e6e6e6"></polygon><polygon points="110.37 291.09 107.34 300.58 105.24 300.41 109.38 287.53 110.37 291.09" style="fill:#e6e6e6"></polygon><polygon points="109.79 256.71 120.84 242.42 123.48 244.96 109.79 256.71" style="fill:#e6e6e6"></polygon><polygon points="118.34 266.78 143.15 253.39 145.18 259.03 118.34 266.78" style="fill:#e6e6e6"></polygon><polygon points="122.92 280.92 149.94 279.18 149.05 285.07 122.92 280.92" style="fill:#e6e6e6"></polygon><polygon points="121.01 289.95 144.59 300.13 141.41 306.01 121.01 289.95" style="fill:#e6e6e6"></polygon><path d="M429.85,226.23a9.74,9.74,0,0,0,11.32-5l5.28-10.42-2.68-1.35-5.28,10.42a6.75,6.75,0,0,1-9,3.06l-9.12-4.34a6.79,6.79,0,0,1-3.38-8.68l2-5-2.78-1.12-2,5a9.79,9.79,0,0,0,4.87,12.52l9.12,4.34A11.4,11.4,0,0,0,429.85,226.23Z" style="fill:#e6e6e6"></path><polygon points="394.29 195.01 399.61 197.41 401.53 198.29 407.41 200.95 409.34 201.82 414.92 204.35 416.87 205.23 422.04 207.57 423.99 208.46 428.95 210.7 430.9 211.58 435.87 213.82 437.8 214.7 442.78 216.96 444.69 217.82 446.08 218.44 451.63 211.77 447.54 203.6 446.09 200.69 442.17 192.86 440.71 189.95 436.8 182.13 435.35 179.22 431.43 171.38 429.97 168.47 426.82 162.17 425.16 163.84 422.61 166.42 414.87 174.24 412.3 176.83 404.18 185.03 401.59 187.65 394.29 195.01" style="fill:#f0f0f0"></polygon><polygon points="451.63 211.77 456.94 214.34 449.34 223.45 446.08 218.44 451.63 211.77" style="fill:#e6e6e6"></polygon><polygon points="446.09 200.69 442.78 216.96 444.69 217.82 447.54 203.6 446.09 200.69" style="fill:#e6e6e6"></polygon><polygon points="440.71 189.95 435.87 213.82 437.8 214.7 442.17 192.86 440.71 189.95" style="fill:#e6e6e6"></polygon><polygon points="435.35 179.22 428.95 210.7 430.9 211.58 436.8 182.13 435.35 179.22" style="fill:#e6e6e6"></polygon><polygon points="429.97 168.47 422.04 207.57 423.99 208.46 431.43 171.38 429.97 168.47" style="fill:#e6e6e6"></polygon><polygon points="422.61 166.42 414.92 204.35 416.87 205.23 425.16 163.84 422.61 166.42" style="fill:#e6e6e6"></polygon><polygon points="412.3 176.83 407.41 200.95 409.34 201.82 414.87 174.24 412.3 176.83" style="fill:#e6e6e6"></polygon><polygon points="401.59 187.65 399.61 197.41 401.53 198.29 404.18 185.03 401.59 187.65" style="fill:#e6e6e6"></polygon><polygon points="418.83 157.9 416.13 140.04 412.59 140.97 418.83 157.9" style="fill:#e6e6e6"></polygon><polygon points="406.46 162.54 391.31 138.75 386.79 142.7 406.46 162.54" style="fill:#e6e6e6"></polygon><polygon points="395.57 172.65 372.82 157.98 370.73 163.56 395.57 172.65" style="fill:#e6e6e6"></polygon><polygon points="392.85 181.47 367.29 178.89 367.21 185.57 392.85 181.47" style="fill:#e6e6e6"></polygon><path d="M427.85,311a9.72,9.72,0,0,0,7.44-9.89l-.46-11.68-3,.12.46,11.68a6.75,6.75,0,0,1-6.34,7l-10.09.65a6.79,6.79,0,0,1-7.17-5.94l-.67-5.37-3,.37.66,5.36a9.78,9.78,0,0,0,10.35,8.57l10.08-.65A9.53,9.53,0,0,0,427.85,311Z" style="fill:#e6e6e6"></path><polygon points="381.59 301.07 387.41 300.58 389.51 300.41 395.94 299.87 398.05 299.69 404.16 299.18 406.29 299.01 411.94 298.53 414.08 298.35 419.51 297.89 421.63 297.72 427.07 297.26 429.18 297.09 434.63 296.63 436.72 296.46 438.23 296.33 439.83 287.79 432.29 282.65 429.6 280.81 422.37 275.88 419.67 274.05 412.45 269.13 409.76 267.29 402.53 262.35 399.83 260.51 394.02 256.55 393.38 258.81 392.41 262.31 389.45 272.9 388.46 276.42 385.37 287.53 384.38 291.09 381.59 301.07" style="fill:#f0f0f0"></polygon><polygon points="439.83 287.79 445.72 287.45 443.52 299.11 438.23 296.32 439.83 287.79" style="fill:#e6e6e6"></polygon><polygon points="429.6 280.81 434.63 296.63 436.72 296.46 432.29 282.65 429.6 280.81" style="fill:#e6e6e6"></polygon><polygon points="419.67 274.05 427.07 297.26 429.18 297.09 422.37 275.88 419.67 274.05" style="fill:#e6e6e6"></polygon><polygon points="409.76 267.29 419.51 297.89 421.63 297.72 412.45 269.13 409.76 267.29" style="fill:#e6e6e6"></polygon><polygon points="399.83 260.51 411.94 298.53 414.08 298.35 402.53 262.35 399.83 260.51" style="fill:#e6e6e6"></polygon><polygon points="392.41 262.31 404.16 299.18 406.29 299.01 393.38 258.81 392.41 262.31" style="fill:#e6e6e6"></polygon><polygon points="388.46 276.42 395.94 299.87 398.05 299.69 389.45 272.9 388.46 276.42" style="fill:#e6e6e6"></polygon><polygon points="384.38 291.09 387.41 300.58 389.51 300.41 385.37 287.53 384.38 291.09" style="fill:#e6e6e6"></polygon><polygon points="384.96 256.71 373.9 242.42 371.26 244.96 384.96 256.71" style="fill:#e6e6e6"></polygon><polygon points="376.41 266.78 351.59 253.39 349.57 259.03 376.41 266.78" style="fill:#e6e6e6"></polygon><polygon points="371.82 280.92 344.81 279.18 345.69 285.07 371.82 280.92" style="fill:#e6e6e6"></polygon><polygon points="373.74 289.95 350.15 300.13 353.34 306.01 373.74 289.95" style="fill:#e6e6e6"></polygon></g><g id="background-simple"><path d="M410.63,118.92c-13.83-23-45.2-48-71.78-28.74a40.84,40.84,0,0,0-12,14.06c-10.68,19.86-10.7,45.92-29.27,61.08-16.9,13.79-41.26,15.6-62.16,13.32-30.61-3.34-61.36-14-91.9-4.42a80.61,80.61,0,0,0-22,10.75C88.8,207.69,74.38,253.19,87.29,290.8c17.45,50.83,78.37,69.31,126.53,74.43,43.19,4.59,88-3,126.05-24s68.89-55.57,82.88-96.7S433.05,156.12,410.63,118.92Z" style="fill:#EFB062"></path><path d="M410.63,118.92c-13.83-23-45.2-48-71.78-28.74a40.84,40.84,0,0,0-12,14.06c-10.68,19.86-10.7,45.92-29.27,61.08-16.9,13.79-41.26,15.6-62.16,13.32-30.61-3.34-61.36-14-91.9-4.42a80.61,80.61,0,0,0-22,10.75C88.8,207.69,74.38,253.19,87.29,290.8c17.45,50.83,78.37,69.31,126.53,74.43,43.19,4.59,88-3,126.05-24s68.89-55.57,82.88-96.7S433.05,156.12,410.63,118.92Z" style="fill:#fff;opacity:0.9"></path></g><g id="Shadow"><ellipse id="path" cx="250" cy="416.24" rx="193.89" ry="11.32" style="fill:#f5f5f5"></ellipse></g><g id="Rewards"><rect x="107.87" y="246.82" width="5.33" height="142.8" transform="translate(-52.94 23.68) rotate(-9.88)" style="fill:#D8954A"></rect><rect x="107.87" y="246.82" width="5.33" height="142.8" transform="translate(-52.94 23.68) rotate(-9.88)" style="fill:#fff;opacity:0.2;isolation:isolate"></rect><circle cx="95.24" cy="231.98" r="29.27" transform="translate(-155.24 219.91) rotate(-64.92)" style="fill:#EFB062"></circle><circle cx="95.24" cy="231.98" r="29.27" transform="translate(-155.24 219.91) rotate(-64.92)" style="fill:#fff;opacity:0.6000000000000001;isolation:isolate"></circle><circle cx="95.24" cy="231.98" r="27.07" transform="translate(-147.95 170.77) rotate(-53.55)" style="fill:#EFB062"></circle><path d="M79.43,234.54l7.6-2s.49-5.79-2.37-17.61a14.58,14.58,0,0,1,4-.87c1.37.07,5,13.14,5,13.14s13.53-4.21,14.41-3.8c.56.26,1.16,2.28,1.52,3.71a1.76,1.76,0,0,1-1,2.06l-.45.21,2.48,13.28a2,2,0,0,1-1.46,2.27l-12.8,3.19a6.47,6.47,0,0,1-3.82-.22l-1.62-.61-7.77,2.46Z" style="fill:#EFB062"></path><path d="M79.43,234.54l7.6-2s.49-5.79-2.37-17.61a14.58,14.58,0,0,1,4-.87c1.37.07,5,13.14,5,13.14s13.53-4.21,14.41-3.8c.56.26,1.16,2.28,1.52,3.71a1.76,1.76,0,0,1-1,2.06l-.45.21,2.48,13.28a2,2,0,0,1-1.46,2.27l-12.8,3.19a6.47,6.47,0,0,1-3.82-.22l-1.62-.61-7.77,2.46Z" style="fill:#fff;opacity:0.7000000000000001;isolation:isolate"></path><path d="M195.53,337.15l-2.27-6c-30.36,1.4-33.76-10-34.08-13.68-.57-6.75,5.53-12.9,13.61-13.71,11.13-1.14,18.55,8.83,22.33,15.4,5.73-6.9,16.82-12.6,25.18-12.6h0c6.4,0,10.95,3,12.47,9.1,1.22,4.89-.51,7.92-2.18,9.8-7.06,8-27.43,6.42-33.55,5.79Zm3.6-12.1c9.22.81,22.63.21,26.4-4,.6-.68,1.22-1.38.68-3.55-.77-3.09-2.6-4.11-5.91-4.11h0C212.9,313.35,202.5,319.65,199.13,325.05Zm-24.62-14.59a9.51,9.51,0,0,0-1,.06c-4.58.46-7.76,3.76-7.54,6.41.26,3,5.85,8.05,24.62,7.58C188.23,319.83,182.59,310.46,174.51,310.46Z" style="fill:#D8954A"></path><rect x="128.98" y="327.63" width="131.79" height="90.53" style="fill:#EFB062"></rect><rect x="128.98" y="327.63" width="131.79" height="90.53" style="fill:#fff;opacity:0.2;isolation:isolate"></rect><rect x="128.98" y="358.91" width="131.79" height="59.25" style="opacity:0.2;isolation:isolate"></rect><rect x="216.81" y="327.63" width="10.71" height="90.53" style="fill:#D8954A"></rect><rect x="147.48" y="327.63" width="7.86" height="90.53" style="fill:#D8954A"></rect><rect x="128.98" y="327.63" width="52.36" height="90.53" style="opacity:0.2;isolation:isolate"></rect><path d="M115.09,359.38c-4.15.43-17.92,1.48-22.7-3.91a6.82,6.82,0,0,1-1.47-6.64c1-4.12,4.1-6.17,8.43-6.17h0c5.66,0,13.16,3.87,17,8.54,2.56-4.45,7.57-11.19,15.1-10.42,5.47.55,9.6,4.71,9.21,9.28-.21,2.46-2.52,10.2-23.06,9.25l-1.53,4.05ZM99.36,347.17h0c-2.24,0-3.47.73-4,2.82a2.22,2.22,0,0,0,.46,2.42c2.55,2.88,11.62,3.26,17.87,2.71C111.4,351.46,104.36,347.17,99.36,347.17Zm20.12,7.63c12.7.32,16.49-3.11,16.66-5.13.15-1.79-2-4-5.1-4.33a5.74,5.74,0,0,0-.71,0C124.87,345.3,121.05,351.64,119.48,354.8Z" style="fill:#EFB062"></path><rect x="71.97" y="356.92" width="89.16" height="61.25" transform="translate(233.11 775.08) rotate(180)" style="fill:#EFB062"></rect><rect x="71.97" y="356.92" width="89.16" height="61.25" transform="translate(233.11 775.08) rotate(180)" style="fill:#fff;opacity:0.6000000000000001"></rect><rect x="71.97" y="378.08" width="89.16" height="40.09" transform="translate(233.11 796.24) rotate(180)" style="opacity:0.1;isolation:isolate"></rect><rect x="125.71" y="356.92" width="35.43" height="61.25" transform="translate(286.84 775.08) rotate(180)" style="fill:#fff;opacity:0.2"></rect><rect x="94.47" y="356.92" width="7.24" height="61.25" transform="translate(196.18 775.08) rotate(180)" style="fill:#EFB062"></rect><rect x="143.29" y="356.92" width="5.32" height="61.25" transform="translate(291.91 775.08) rotate(180)" style="fill:#EFB062"></rect></g><g id="Plant"><path d="M386.28,342.82s7-5.84,13,0,7.17,42,7.17,42" style="fill:none;stroke:#EFB062;stroke-miterlimit:10"></path><path d="M407,391.85s-4.13-42.48,11.42-60.33" style="fill:none;stroke:#EFB062;stroke-miterlimit:10"></path><path d="M405.48,387.37S408.66,339,397,328.28" style="fill:none;stroke:#EFB062;stroke-miterlimit:10"></path><path d="M407,387.37s.27-32,8.94-36.92S429,361.68,429,361.68" style="fill:none;stroke:#EFB062;stroke-miterlimit:10"></path><path d="M403.53,387.37s1.42-24.53-5.3-33.3-13.78,3.76-13.78,3.76" style="fill:none;stroke:#EFB062;stroke-miterlimit:10"></path><path d="M405.88,390.66s-4.35-57.38,2.84-67.1" style="fill:none;stroke:#EFB062;stroke-miterlimit:10"></path><path d="M423.32,355.1s-4.32,1.6-3,5.36,15,10,15,10,5.72-5.25.47-13.78S423.44,352.41,423.32,355.1Z" style="fill:#EFB062"></path><path d="M423.32,355.1s-4.32,1.6-3,5.36,15,10,15,10,5.72-5.25.47-13.78S423.44,352.41,423.32,355.1Z" style="fill:#fff;opacity:0.2;isolation:isolate"></path><path d="M404.53,347.94s4.6-.19,4.87,3.78-10,14.94-10,14.94-7.3-2.64-5.73-12.54S403.39,345.5,404.53,347.94Z" style="fill:#EFB062"></path><path d="M404.53,347.94s4.6-.19,4.87,3.78-10,14.94-10,14.94-7.3-2.64-5.73-12.54S403.39,345.5,404.53,347.94Z" style="fill:#fff;opacity:0.2;isolation:isolate"></path><path d="M400.63,329s3.07-.33,2.83-2.2-11.93-6.68-18.83,1.1c0,0,4.42,7.58,10.8,7.68S400.63,329,400.63,329Z" style="fill:#EFB062"></path><path d="M400.63,329s3.07-.33,2.83-2.2-11.93-6.68-18.83,1.1c0,0,4.42,7.58,10.8,7.68S400.63,329,400.63,329Z" style="fill:#fff;opacity:0.2;isolation:isolate"></path><path d="M406.35,324.41s-2.78,1.35-3.55-.37,6.59-12,16.55-9c0,0,.26,8.77-5.1,12.22S406.35,324.41,406.35,324.41Z" style="fill:#EFB062"></path><path d="M406.35,324.41s-2.78,1.35-3.55-.37,6.59-12,16.55-9c0,0,.26,8.77-5.1,12.22S406.35,324.41,406.35,324.41Z" style="fill:#fff;opacity:0.2;isolation:isolate"></path><path d="M391.82,353.59s2.12-1.71-.16-2.54-13.5-.6-13.62,10.51c0,0,13.06,2.17,14.68-2.06S391.82,353.59,391.82,353.59Z" style="fill:#EFB062"></path><path d="M391.82,353.59s2.12-1.71-.16-2.54-13.5-.6-13.62,10.51c0,0,13.06,2.17,14.68-2.06S391.82,353.59,391.82,353.59Z" style="fill:#fff;opacity:0.2;isolation:isolate"></path><path d="M418.46,328.67s-2.12-1.71.17-2.54,13.5-.6,13.61,10.51c0,0-13.06,2.17-14.67-2.06S418.46,328.67,418.46,328.67Z" style="fill:#EFB062"></path><path d="M418.46,328.67s-2.12-1.71.17-2.54,13.5-.6,13.61,10.51c0,0-13.06,2.17-14.67-2.06S418.46,328.67,418.46,328.67Z" style="fill:#fff;opacity:0.2;isolation:isolate"></path><path d="M411.55,337.62s-.18-2.08,1.5-1.26,7.52,7.12,1.46,13.11c0,0-8.16-6.05-6.69-9.19S411.55,337.62,411.55,337.62Z" style="fill:#EFB062"></path><path d="M411.55,337.62s-.18-2.08,1.5-1.26,7.52,7.12,1.46,13.11c0,0-8.16-6.05-6.69-9.19S411.55,337.62,411.55,337.62Z" style="fill:#fff;opacity:0.2;isolation:isolate"></path><path d="M389.93,340.59s1.27-1.66-.59-1.87-10.16,2-8.23,10.31c0,0,10.13-.76,10.56-4.21S389.93,340.59,389.93,340.59Z" style="fill:#EFB062"></path><path d="M389.93,340.59s1.27-1.66-.59-1.87-10.16,2-8.23,10.31c0,0,10.13-.76,10.56-4.21S389.93,340.59,389.93,340.59Z" style="fill:#fff;opacity:0.2;isolation:isolate"></path><polygon points="424.13 418.17 389.4 418.17 385.65 380.14 427.88 380.14 424.13 418.17" style="fill:#EFB062"></polygon><polygon points="424.13 418.17 389.4 418.17 385.65 380.14 427.88 380.14 424.13 418.17" style="fill:#fff;opacity:0.5;isolation:isolate"></polygon><rect x="383.79" y="375.94" width="45.94" height="8.39" style="fill:#EFB062"></rect><rect x="383.79" y="375.94" width="45.94" height="8.39" style="fill:#fff;opacity:0.2;isolation:isolate"></rect></g><g id="character-2"><path d="M361.29,139.52s-2.58-5.93-10.88-5.93-15.23,4.94-14.84,11.27-4.35,5.74-5.14,11.87,2.17,7.71,2.37,10.29-3.16,1.78-5.34,6.13-4.94,10.48,4.35,18.59,35.61,6.73,41.34,1.78,5.54-14.44,0-17-.39-2.18.2-7.91-4.55-7.91-4.15-12.46S371,139.92,361.29,139.52Z" style="fill:#D8954A"></path><path d="M313,222.58l-8.19-4.47s-2.32-6-3.55-6.64S291.13,211,290,211s-.82,8.33-.28,9.72,10.37,1.85,11.33,2l10,7.25Z" style="fill:#EFB062"></path><path d="M326.77,177.8c-6.17,0-11.18,43.48-11.18,43.48l-8.44-3.17-5.27,7.65s9.49,12.13,18.72,10.55,14-49.12,14-49.12Z" style="fill:#EFB062"></path><path d="M334.58,187.19s-.12,1.24-.37,3.34c-1.28,10.84-5.86,44.46-13.61,45.78a9.28,9.28,0,0,1-2.23.12c-8.47-.41-16.49-10.67-16.49-10.67l5.27-7.64,8.44,3.16s5-43.52,11.18-43.48Z" style="fill:#fff;opacity:0.2;isolation:isolate"></path><path d="M334.21,190.53c-1.28,10.84-5.86,44.46-13.61,45.78a9.28,9.28,0,0,1-2.23.12c-.2-27.92,8.3-52.6,8.3-52.6Z" style="opacity:0.2;isolation:isolate"></path><path d="M331.29,242.08s-10.84,57.76-13.73,81.48c-3.78,30.94-19.23,76.2-19.23,76.2l6.18,1.6s21.78-38.47,26-73.07c17.3-35.37,18.7-78.93,18.7-78.93Z" style="fill:#EFB062"></path><path d="M286.83,413.76A8.93,8.93,0,0,1,290,413h0s3.8-2.24,7.56-10.92l4.24,0a3.5,3.5,0,0,1,3.25,2.33,2,2,0,0,1,.12.59,22.39,22.39,0,0,1-.33,3.05,84.9,84.9,0,0,1-2.47,10l-.72-.19,1.31-6.31c.43-2.15-1.83-.08-2.87,2.09s-2.65,4.34-7.33,3.27C287.32,415.53,285.12,414.74,286.83,413.76Z" style="fill:#D8954A"></path><path d="M342.54,241.16s1.35,58.75,3.42,82.55c2.71,31.06-3,78.54-3,78.54l6.38.28s13.35-42.14,10.35-76.87c9.61-38.19,2-81.09,2-81.09Z" style="fill:#EFB062"></path><path d="M333,415.7a9,9,0,0,1,3.07-1.15h0s3.53-2.63,6.34-11.67l4.2-.48a3.49,3.49,0,0,1,3.49,2,1.9,1.9,0,0,1,.18.57,24.19,24.19,0,0,1,0,3.07,84.54,84.54,0,0,1-1.39,10.16l-.73-.1.61-6.42c.2-2.18-1.81.12-2.62,2.39s-2.16,4.6-6.93,4C333.67,417.4,331.4,416.85,333,415.7Z" style="fill:#D8954A"></path><path d="M298.33,399.76S293,410.82,290,413c0,0,4.08,2.43,8.33-3,5.49-7,6.84-5,6.84-5a19.61,19.61,0,0,0-.66-3.57C303.68,399.1,298.33,399.76,298.33,399.76Z" style="fill:#EFB062"></path><path d="M343.56,399.67s-1.5,4.09-3.5,8.59a19.58,19.58,0,0,1-4,6.29s3.47,1.13,5.35-1.05,5.08-10,8.68-9.14a8.21,8.21,0,0,0-.8-1.83C348.75,401.64,343.56,399.67,343.56,399.67Z" style="fill:#EFB062"></path><path d="M327.58,232.44s-4.29,42.76-10.67,85.63a453.17,453.17,0,0,1-17.14,72l12.66,1.06s24.26-60.14,31.65-94.95c0,0,2.63,61.71-1.59,96l11.08-.53s27-116.14,6.86-158Z" style="fill:#EFB062"></path><path d="M353.57,391.66l-11.08.52c4.22-34.28,1.59-96,1.59-96-1.87,8.79-4.81,19.18-8.16,29.82-9.93,31.51-23.49,65.13-23.49,65.13l-12.66-1.06a452.82,452.82,0,0,0,17.14-72c6.38-42.87,10.67-85.63,10.67-85.63l32.85,1.24C380.6,275.51,353.57,391.66,353.57,391.66Z" style="fill:#fff;opacity:0.4;isolation:isolate"></path><path d="M344.08,296.18c-1.87,8.79-4.81,19.18-8.16,29.82-1.28-20,3.81-55.93,3.81-55.93Z" style="opacity:0.2;isolation:isolate"></path><polygon points="360.36 231.6 360.45 236.43 327.4 234.52 327.3 228.81 360.36 231.6" style="fill:#D8954A"></polygon><rect x="334.75" y="230.09" width="7.24" height="5.49" transform="translate(659.52 488.91) rotate(-175.97)" style="fill:#fff"></rect><rect x="349.11" y="229.8" width="1.64" height="8.35" transform="translate(692.15 479.08) rotate(-178.16)" style="fill:#EFB062"></rect><rect x="349.11" y="229.8" width="1.64" height="8.35" transform="translate(692.15 479.08) rotate(-178.16)" style="fill:#fff;opacity:0.4;isolation:isolate"></rect><rect x="328.91" y="227.97" width="1.64" height="8.35" transform="translate(651.83 474.75) rotate(-178.16)" style="fill:#EFB062"></rect><rect x="328.91" y="227.97" width="1.64" height="8.35" transform="translate(651.83 474.75) rotate(-178.16)" style="fill:#fff;opacity:0.4;isolation:isolate"></rect><path d="M327.42,227.49l33,2.85a117.34,117.34,0,0,1,3.51-24.24c.79-3.16,1.78-6.69,3.05-10.77.68-2.18,1.43-4.52,2.27-7,.63-1.91,1.31-3.94,2.06-6.08a98,98,0,0,0-13.7-3.31,105.2,105.2,0,0,0-14.82-1.56c-6.42-.05-13.8.67-13.8.67s-1.05.25-1.71,7.06C326.69,191.46,326.1,204.24,327.42,227.49Z" style="fill:#EFB062"></path><path d="M327.36,229.42l33,2.18c.52-8.2,1.11-15.72,3.58-25.5.79-3.16,1.78-6.69,3.05-10.77.68-2.18,1.43-4.52,2.27-7,.63-1.91,1.31-3.94,2.06-6.08a98,98,0,0,0-13.7-3.31,105.2,105.2,0,0,0-14.82-1.56c-6.42-.05-13.8.67-13.8.67s-1.05.25-1.71,7.06C326.69,191.46,326,206.17,327.36,229.42Z" style="fill:#D8954A"></path><g style="opacity:0.1;isolation:isolate"><path d="M327.42,227.49l33,2.85a117.34,117.34,0,0,1,3.51-24.24c.79-3.16,1.78-6.69,3.05-10.77.68-2.18,1.43-4.52,2.27-7,.63-1.91,1.31-3.94,2.06-6.08a98,98,0,0,0-13.7-3.31,105.2,105.2,0,0,0-14.82-1.56c-6.42-.05-13.8.67-13.8.67s-1.05.25-1.71,7.06C326.69,191.46,326.1,204.24,327.42,227.49Z" style="fill:#fff"></path></g><path d="M345.52,184.63c8.14-1,10.58-4.52,10.58-4.52-5.16-4.87-.87-13.31-.87-13.31l-9.79,1.83a30.64,30.64,0,0,1,.38,4.12c.07,5.95-2.61,6-2.61,6C341.49,182,345.52,184.63,345.52,184.63Z" style="fill:#EFB062"></path><path d="M345.44,168.63a30.64,30.64,0,0,1,.38,4.12c6.61,0,9.41-5.95,9.41-5.95Z" style="opacity:0.2;isolation:isolate"></path><path d="M350.85,141.25c-8.51-.46-11.5,3.94-12.61,12.68-1.38,10.92.63,18.84,11.4,17.08C364.27,168.62,365,142,350.85,141.25Z" style="fill:#EFB062"></path><path d="M343.77,153.76a17.81,17.81,0,0,1-2.67,3.39,2.35,2.35,0,0,0,2.19,1.09Z" style="fill:#D8954A"></path><path d="M349,153.35c0,.69.28,1.29.74,1.33s.89-.5.95-1.2-.28-1.3-.75-1.33S349.08,152.65,349,153.35Z" style="fill:#D8954A"></path><path d="M350.15,152.2l-1.47-.72S349.34,152.82,350.15,152.2Z" style="fill:#D8954A"></path><path d="M340.35,152.52c-.05.7.28,1.29.74,1.33s.89-.5,1-1.2-.28-1.29-.75-1.33S340.41,151.82,340.35,152.52Z" style="fill:#D8954A"></path><path d="M341.48,151.37l-1.47-.71S340.67,152,341.48,151.37Z" style="fill:#D8954A"></path><path d="M349.43,147.47a4.43,4.43,0,0,1,3.62,1.49" style="fill:none;stroke:#2e353a;stroke-linecap:round;stroke-linejoin:round;stroke-width:0.7246800000000001px"></path><path d="M343.26,146.77a4,4,0,0,0-3.43.52" style="fill:none;stroke:#2e353a;stroke-linecap:round;stroke-linejoin:round;stroke-width:0.7246800000000001px"></path><path d="M344.35,161.65a21.15,21.15,0,0,1,.83,3,5,5,0,0,0,.55,0c2.49-.11,3.61-1,4.1-1.92a3.19,3.19,0,0,0,.32-1.49,3.27,3.27,0,0,0-.11-.87,11.73,11.73,0,0,1-4.84,1.24C344.68,161.65,344.35,161.65,344.35,161.65Z" style="fill:#D8954A"></path><path d="M345.2,161.6l.27.88c2.34-.11,4-.51,4.68-1.25a3.27,3.27,0,0,0-.11-.87A11.73,11.73,0,0,1,345.2,161.6Z" style="fill:#fff"></path><path d="M345.73,164.64c2.49-.11,3.61-1,4.1-1.92a8.08,8.08,0,0,0-2.75.67A3.06,3.06,0,0,0,345.73,164.64Z" style="fill:#EFB062"></path><path d="M359.37,156.11s-3.6-7.21-2.7-12.58c0,0-16.49-7.81-18.26,9.26,0,0-.82-15.29,13.83-14.83s13.42,21.87,5.51,27.83C357.75,165.79,361.59,160.62,359.37,156.11Z" style="fill:#D8954A"></path><path d="M360.23,140.44s-6.66-5.93-12.72-4.81-5,9.1,3,12.13,9.63,6.93,9.63,6.93l6.92-6.2Z" style="fill:#D8954A"></path><path d="M345.73,138.13s-2.84.19-2.05,4.41,6.79,6.34,12.46,8.32,5.21,4.21,5.21,4.21" style="fill:none;stroke:#D8954A;stroke-miterlimit:10;stroke-width:0.5px"></path><path d="M357.88,157.83a3.73,3.73,0,0,1,4.2-3.19c2.63.43,3.59,5.91-3.05,6.86C358.08,161.63,357.6,160.68,357.88,157.83Z" style="fill:#EFB062"></path><path d="M363.64,181s-9.55,7.75-18.44,7.63-12-10.13-12-10.13S347,174.43,363.64,181Z" style="fill:#EFB062"></path><path d="M357.82,178.29a213.79,213.79,0,0,0,.5,65.41l9.49-1.06,4.49-60.92Z" style="fill:#EFB062"></path><path d="M372.3,181.72l-.48,6.46-2.41,32.71-1.6,21.75-9.49,1.06c-.11-.69-.22-1.38-.32-2.06a214,214,0,0,1-2.43-32.4v-1.11a200.82,200.82,0,0,1,2.25-29.84l4.4,1Z" style="fill:#fff;opacity:0.2;isolation:isolate"></path><path d="M339.59,177S329,208.09,327.46,240L324,239s-2.54-34.52,2.74-61.15Z" style="fill:#EFB062"></path><path d="M339.59,177a269.18,269.18,0,0,0-7.45,28.34c-.54,2.59-1.07,5.3-1.56,8.1-.92,5.18-1.72,10.66-2.31,16.27-.36,3.41-.64,6.86-.81,10.33L324,239s-.33-4.43-.5-11.35c-.12-4.75-.17-10.68,0-17.14a201.41,201.41,0,0,1,3.23-32.66l8.79-.57Z" style="fill:#fff;opacity:0.2;isolation:isolate"></path><path d="M359.11,190.06l3.36,4.75-6.9,13.32a200.82,200.82,0,0,1,2.25-29.84l4.4,1,2.82,6.28Z" style="fill:#fff;opacity:0.2;isolation:isolate"></path><path d="M339.59,177a269.18,269.18,0,0,0-7.45,28.34l-2.5-13.67,4.94-4.45-3.16-4.94,4.14-5Z" style="fill:#fff;opacity:0.2;isolation:isolate"></path><path d="M371.82,188.18l-2.41,32.71c-2.81,7-6.63,14.81-11.41,20.75a214,214,0,0,1-2.43-32.4c4.37-7.13,10.6-16.36,16-20.86Z" style="opacity:0.2;isolation:isolate"></path><path d="M330.58,213.41c-.92,5.18-1.72,10.66-2.31,16.27-1.57-.67-3.18-1.38-4.74-2.08-.12-4.75-.17-10.68,0-17.14Z" style="opacity:0.2;isolation:isolate"></path><path d="M297.22,216.62s-7.44-3-4.27-10.7c0,0-2.15,2-7.15-.48,0,0,5.21,2.49,4.48,4.11-.61,1.35-7.46,2.08-7.46,2.08s7.71-.53,8.53,1.13c.51,1.05-4.67,7.26-4.67,7.26s5.45-5.27,6.61-4.59-.37,5.07-.37,5.07,1.48-3.79,2.33-3.67.72,2.65.72,2.65S296,216.79,297.22,216.62Z" style="fill:#EFB062"></path><path d="M303.2,199.89s-6.2-5.07-11.43,1.45c0,0,.73-2.86-3.88-6,0,0,4.7,3.35,5.77,1.92.88-1.18-1.8-7.53-1.8-7.53s3.27,7,5.12,6.91c1.17-.06,4.09-7.59,4.09-7.59s-2,7.32-.81,8,4.25-2.78,4.25-2.78-2.59,3.13-2.08,3.82,2.67-.65,2.67-.65S302.73,198.7,303.2,199.89Z" style="fill:#EFB062"></path><path d="M297.22,216.62s-7.44-3-4.27-10.7c0,0-2.15,2-7.15-.48,0,0,5.21,2.49,4.48,4.11-.61,1.35-7.46,2.08-7.46,2.08s7.71-.53,8.53,1.13c.51,1.05-4.67,7.26-4.67,7.26s5.45-5.27,6.61-4.59-.37,5.07-.37,5.07,1.48-3.79,2.33-3.67.72,2.65.72,2.65S296,216.79,297.22,216.62Z" style="fill:#fff;opacity:0.7000000000000001;isolation:isolate"></path><path d="M303.2,199.89s-6.2-5.07-11.43,1.45c0,0,.73-2.86-3.88-6,0,0,4.7,3.35,5.77,1.92.88-1.18-1.8-7.53-1.8-7.53s3.27,7,5.12,6.91c1.17-.06,4.09-7.59,4.09-7.59s-2,7.32-.81,8,4.25-2.78,4.25-2.78-2.59,3.13-2.08,3.82,2.67-.65,2.67-.65S302.73,198.7,303.2,199.89Z" style="fill:#fff;opacity:0.7000000000000001;isolation:isolate"></path><path d="M326.57,214.83l-13.43-9.13s-4.34-12.78-5.38-13-8.22,3.67-8.57,4.81,3.89,10.27,5,11.43,3.91,1.28,3.91,1.28l13.08,10.28Z" style="fill:#EFB062"></path><path d="M372.3,181.72c-3.83-.25-17.94,37.45-20.05,40.61s-33.89-13.58-33.89-13.58l-4.74,10.48s34.61,20.58,44.17,17.61c6.92-2.15,13.45-24,16.35-33.5C378.77,188.21,375.8,181.94,372.3,181.72Z" style="fill:#EFB062"></path><path d="M372.3,181.72c-3.83-.25-17.94,37.45-20.05,40.61s-33.89-13.58-33.89-13.58l-4.74,10.48s34.61,20.58,44.17,17.61c6.92-2.15,13.45-24,16.35-33.5C378.77,188.21,375.8,181.94,372.3,181.72Z" style="fill:#fff;opacity:0.2;isolation:isolate"></path></g><g id="speech-bubble"><rect x="236.05" y="91.5" width="21.1" height="21.1" rx="3.69" transform="translate(21.02 -40.56) rotate(9.82)" style="fill:#EFB062"></rect><path d="M253,98.94c-1.06-2.63-4-2.2-5.79-.6-1.13-2.11-3.77-3.51-5.66-1.38-3.17,3.59,1.29,8.2,3.45,10.08l.61.53.76-.29C249.06,106.23,254.81,103.39,253,98.94Z" style="fill:#fff;opacity:0.6000000000000001;isolation:isolate"></path><path d="M247.31,111.22s-3.81,5.76-10.25,6.65c0,0,3.72-1.36,4.58-7.9Z" style="fill:#EFB062"></path></g><g id="character-1"><g id="group"><path d="M200.56,408.89h-9.9a.71.71,0,0,0-.69.56l-1.61,7.25a1.21,1.21,0,0,0,.93,1.43.74.74,0,0,0,.26,0c3.2,0,5.54-.24,9.56-.24,2.48,0,9.95.25,13.37.25s3.87-3.37,2.47-3.69c-6.28-1.36-11-3.26-13-5.06A1.93,1.93,0,0,0,200.56,408.89Z" style="fill:#D8954A"></path><path d="M242.54,408.63h-9.9a.71.71,0,0,0-.69.56l-1.61,7.25a1.21,1.21,0,0,0,.93,1.43,1.09,1.09,0,0,0,.26,0c3.21-.06,5.54-.25,9.56-.25,2.48,0,9.95.26,13.37.26s3.87-3.38,2.47-3.69c-6.28-1.37-11-3.27-13-5.07A1.93,1.93,0,0,0,242.54,408.63Z" style="fill:#D8954A"></path><path d="M195.31,225.39h43.25c4.11,22.45,15.87,113.33,6.64,184.13l-14.44,1.58S233,302.3,220.1,267.55c-1.49,18.6-3.26,38.39-4.79,48.91-3.76,25.92-12.24,93.46-12.24,93.46l-14.64.39s3.21-65.51,4.61-91C194.59,291.69,195.25,231.07,195.31,225.39Z" style="fill:#D8954A"></path><path d="M195.31,225.39h43.25c4.11,22.45,15.87,113.33,6.64,184.13l-14.44,1.58S233,302.3,220.1,267.55c-1.49,18.6-3.26,38.39-4.79,48.91-3.76,25.92-12.24,93.46-12.24,93.46l-14.64.39s3.21-65.51,4.61-91C194.59,291.69,195.25,231.07,195.31,225.39Z" style="fill:#fff;opacity:0.2;isolation:isolate"></path><path d="M220.1,267.56a115.72,115.72,0,0,1,4.83,18.71c1.21-16.55-3.63-34.1-3.63-34.1Z" style="opacity:0.2;isolation:isolate"></path><polygon points="238.92 225.91 195.39 225.91 195.39 231.09 239.48 230.55 238.92 225.91" style="fill:#D8954A"></polygon><rect x="209.38" y="223.57" width="1.55" height="9.2" transform="translate(420.32 456.35) rotate(180)" style="fill:#D8954A"></rect><rect x="231.41" y="223.57" width="1.55" height="9.2" transform="translate(464.37 456.35) rotate(180)" style="fill:#D8954A"></rect><rect x="219.08" y="225" width="8.05" height="5.8" transform="translate(446.21 455.8) rotate(180)" style="fill:#fff"></rect><rect x="209.38" y="223.57" width="1.55" height="9.2" transform="translate(420.32 456.35) rotate(180)" style="fill:#fff;opacity:0.2;isolation:isolate"></rect><rect x="231.41" y="223.57" width="1.55" height="9.2" transform="translate(464.37 456.35) rotate(180)" style="fill:#fff;opacity:0.2;isolation:isolate"></rect><path d="M284.16,172.9l3.66-3.76s1.46-5.65,2.3-6.69,7.21-4,7.21-4,2.19.11,2.5.52-.73,9.93-1.67,11.18-5.53,2.3-6.16,2.51-7.1,6.79-7.1,6.79Z" style="fill:#EFB062"></path><path d="M234.61,150.56c6.83.83,20.28,31.88,25.42,34.65s25.52-14.63,25.52-14.63l5.14,6.33s-23.14,24.72-32.24,22-22-26.11-25.91-33.43S234.61,150.56,234.61,150.56Z" style="fill:#EFB062"></path><path d="M290.69,176.91s-23.14,24.72-32.24,22c-4-1.21-8.66-6.34-13-12.34a200,200,0,0,1-12.9-21.08,12.48,12.48,0,0,1-.22-10.8,18.15,18.15,0,0,1,2.29-4.08c6.83.83,20.28,31.89,25.42,34.66s25.52-14.64,25.52-14.64Z" style="fill:#fff;opacity:0.6000000000000001;isolation:isolate"></path><path d="M245.44,186.52a200,200,0,0,1-12.9-21.08,12.48,12.48,0,0,1-.22-10.8C236.21,159.43,244.12,170.93,245.44,186.52Z" style="opacity:0.2;isolation:isolate"></path><path d="M234.61,150.56s-27.51-1.3-48,3.88c0,0,9,45.55,8.7,71.47h43.61S241.76,177.3,234.61,150.56Z" style="fill:#EFB062"></path><path d="M238.92,225.91h-43.6c0-2.82,0-5.86-.2-9.06-.38-7.48-1.23-15.77-2.26-23.79l-.3-2.34c-.7-5.21-1.45-10.25-2.18-14.85-2-12.35-3.77-21.43-3.77-21.43,20.49-5.17,48-3.88,48-3.88C241.75,177.31,238.92,225.91,238.92,225.91Z" style="fill:#fff;opacity:0.6000000000000001;isolation:isolate"></path><path d="M221.86,198.27s-7.53,17.95-26.74,18.58c-.38-7.48-1.23-15.77-2.26-23.79Z" style="opacity:0.2;isolation:isolate"></path><path d="M202.67,152.37c4,3.59,13.63,2.26,13.63,2.26s6-1.65,4.77-3.54c-3.56-.59-5.28-2.25-6-4.37a10.11,10.11,0,0,1-.36-4.07,19.44,19.44,0,0,1,.3-2.26l-12-8.86C204.62,137.37,206.54,148.13,202.67,152.37Z" style="fill:#EFB062"></path><path d="M205.82,137.16c.47,7.18,6.37,9.16,9.26,9.56a10.11,10.11,0,0,1-.36-4.07Z" style="opacity:0.2;isolation:isolate"></path><path d="M223.3,112.92s3.34,10.8-1.89,15.93-8.31-15.44-8.31-15.44Z" style="fill:#D8954A"></path><path d="M205.7,140.19a10.15,10.15,0,0,0,12.1,2.16,11.31,11.31,0,0,0,5.6-6.15c.14-.37.26-.75.37-1.14,1.87-7.19,1-19.14-6.79-22.49a11,11,0,0,0-15.37,10.68C201.92,131.28,201.72,136,205.7,140.19Z" style="fill:#EFB062"></path><path d="M213.75,125.74c-.06.65.32,1.19.75,1.2s.78-.52.8-1.17-.33-1.19-.75-1.2S213.77,125.08,213.75,125.74Z" style="fill:#D8954A"></path><path d="M221.14,125.89c-.06.65.33,1.19.75,1.2s.78-.52.8-1.17-.33-1.19-.75-1.2S221.16,125.27,221.14,125.89Z" style="fill:#D8954A"></path><path d="M218.79,126.16a23,23,0,0,0,3,5.66,3.81,3.81,0,0,1-3.16.52Z" style="fill:#EFB062"></path><path d="M211.5,123.3a.41.41,0,0,0,.38-.14,3.12,3.12,0,0,1,2.48-1.24.38.38,0,0,0,.42-.34.39.39,0,0,0-.35-.42h0a3.82,3.82,0,0,0-3.15,1.52.39.39,0,0,0,.05.54h0A.48.48,0,0,0,211.5,123.3Z" style="fill:#D8954A"></path><path d="M224.37,123.4a.34.34,0,0,0,.22,0,.39.39,0,0,0,.2-.51h0a3.83,3.83,0,0,0-2.73-2.21.38.38,0,0,0-.43.32h0a.41.41,0,0,0,.32.44h0a3.06,3.06,0,0,1,2.13,1.78A.35.35,0,0,0,224.37,123.4Z" style="fill:#D8954A"></path><path d="M207.7,113.35l.53,3.53a2.64,2.64,0,0,0-1.23,3.36c1.22,2.94-.34,7.6-2.57,9.51,0,0-.11-1.29-1.19-.95s-.59,7,1.62,10.18A23.43,23.43,0,0,1,199,128.54c-1.85-6.47-1.66-11.27-.39-13.83Z" style="fill:#D8954A"></path><path d="M198,129.76a7.59,7.59,0,0,0,4.3,4c2.52.91,4-1.31,3.44-3.79-.5-2.2-2.39-5.4-5-5.21S197,127.5,198,129.76Z" style="fill:#EFB062"></path><path d="M219.24,134.31a19.29,19.29,0,0,0-.79,2.85l-.52,0c-2.36-.11-3.42-.94-3.88-1.83a3,3,0,0,1-.31-1.41,2.9,2.9,0,0,1,.11-.81,11.3,11.3,0,0,0,4.58,1.17Z" style="fill:#D8954A"></path><path d="M218.43,134.26l-.25.83c-2.22-.11-3.77-.48-4.44-1.19a2.9,2.9,0,0,1,.11-.81A11.3,11.3,0,0,0,218.43,134.26Z" style="fill:#fff"></path><path d="M217.93,137.14c-2.36-.11-3.42-.94-3.88-1.83a7.62,7.62,0,0,1,2.6.64A2.87,2.87,0,0,1,217.93,137.14Z" style="fill:#EFB062"></path><path d="M210.15,114.56s.53,4.22-4.74,6.4-7.19,4-7.19,4-3.56-10.35,2.9-14.17c0,0,.13-2,5.67-3.89s13.48-1,17.08,5.67c2.7,5,.2,8.57.2,8.57s-.53-2.9-5.67-3.56A20.31,20.31,0,0,1,210.15,114.56Z" style="fill:#D8954A"></path><path d="M220.24,154.05l-1.16,5.69s6.63,27.64,8,42l-2.41,2.42-3.8-2.42s-.34-29.2-3.69-41.46l-6-4.92,4.73-1.53Z" style="fill:#D8954A"></path><path d="M204,147l11.5,5.18.67-4.16,4.22,1.49a3.48,3.48,0,0,1,2.31,3.64l-.48,4.56-5.83-3.19-2.91,4.11-13.8-6.65Z" style="fill:#EFB062"></path><path d="M204,147l11.5,5.18.67-4.16,4.22,1.49a3.48,3.48,0,0,1,2.31,3.64l-.48,4.56-5.83-3.19-2.91,4.11-13.8-6.65Z" style="fill:#fff;opacity:0.7000000000000001;isolation:isolate"></path><path d="M234.52,191l13.84-2.57s2.57-2.57,3.76-2.57,16.62,4.74,16.62,4.74-4.16,4.16-6.14,4.95-11.07-1.19-11.07-1.19l-13.45,3.56Z" style="fill:#EFB062"></path><path d="M186.61,154.44c6.32-2.3,15.66,35.12,17.64,38.09s39.17-4.36,39.17-4.36l3,8.71s-31.45,10.88-44.5,8.71-16-21.17-19.19-32.44S182,156.1,186.61,154.44Z" style="fill:#EFB062"></path><path d="M186.61,154.44c6.32-2.3,15.66,35.12,17.64,38.09s39.17-4.36,39.17-4.36l3,8.71s-31.45,10.88-44.5,8.71-16-21.17-19.19-32.44S182,156.1,186.61,154.44Z" style="fill:#fff;opacity:0.7000000000000001;isolation:isolate"></path><path d="M286.52,154.41a4.83,4.83,0,0,1,3-2.62,6.14,6.14,0,0,1,3.7.07,6,6,0,0,1,3,2.18,4.48,4.48,0,0,1,.49.81,4.71,4.71,0,0,1,.34.88l.13.44.06.42.11.84a8.7,8.7,0,0,1-2,6.3,12.06,12.06,0,0,1-5.24,3.62,17.16,17.16,0,0,1-6.07,1,20.53,20.53,0,0,1-3-.22,14.74,14.74,0,0,0-2.75-.28,3.71,3.71,0,0,0-2.28.75,1.67,1.67,0,0,0-.67,1.84,1.35,1.35,0,0,0,1.6.8,1.1,1.1,0,0,0,.25-1.92,1.29,1.29,0,0,1,1,1.18,1.76,1.76,0,0,1-.82,1.59,2,2,0,0,1-1.87.12,2.47,2.47,0,0,1-1.35-1.29,3,3,0,0,1,.9-3.38,5.28,5.28,0,0,1,3.09-1.25,16.64,16.64,0,0,1,3.06.14,17.33,17.33,0,0,0,2.79.05,15.49,15.49,0,0,0,5.33-1.18,10,10,0,0,0,4.16-3.08,6.66,6.66,0,0,0,1.28-4.86,3.41,3.41,0,0,0-3.85-3c-1.88.33-3.25,2-4.08,3.6Z" style="fill:#EFB062"></path><path d="M260.54,145.56a4.81,4.81,0,0,0-.81-3.93,6.08,6.08,0,0,0-3-2.2,6,6,0,0,0-3.71-.11,3.94,3.94,0,0,0-.88.35,4,4,0,0,0-.8.48l-.38.27-.31.3-.6.59a8.69,8.69,0,0,0-2.24,6.22,12.14,12.14,0,0,0,1.93,6.07,17.23,17.23,0,0,0,4.18,4.53,19.17,19.17,0,0,0,2.54,1.67,16.76,16.76,0,0,1,2.35,1.46,3.92,3.92,0,0,1,1.35,2,1.7,1.7,0,0,1-.6,1.87,1.35,1.35,0,0,1-1.75-.34,1.11,1.11,0,0,1,1-1.68,1.29,1.29,0,0,0-1.54.3,1.74,1.74,0,0,0-.33,1.76,2,2,0,0,0,1.41,1.24,2.52,2.52,0,0,0,1.86-.19,3,3,0,0,0,1.35-3.23,5.23,5.23,0,0,0-1.68-2.88,17.24,17.24,0,0,0-2.51-1.76,18.28,18.28,0,0,1-2.24-1.66,15.55,15.55,0,0,1-3.5-4.19,9.9,9.9,0,0,1-1.41-5,6.67,6.67,0,0,1,1.94-4.63,3.42,3.42,0,0,1,4.9,0c1.28,1.41,1.35,3.57,1,5.34Z" style="fill:#EFB062"></path><g style="opacity:0.2;isolation:isolate"><path d="M286.52,154.41a4.83,4.83,0,0,1,3-2.62,6.14,6.14,0,0,1,3.7.07,6,6,0,0,1,3,2.18,4.48,4.48,0,0,1,.49.81,4.71,4.71,0,0,1,.34.88l.13.44.06.42.11.84a8.7,8.7,0,0,1-2,6.3,12.06,12.06,0,0,1-5.24,3.62,17.16,17.16,0,0,1-6.07,1,20.53,20.53,0,0,1-3-.22,14.74,14.74,0,0,0-2.75-.28,3.71,3.71,0,0,0-2.28.75,1.67,1.67,0,0,0-.67,1.84,1.35,1.35,0,0,0,1.6.8,1.1,1.1,0,0,0,.25-1.92,1.29,1.29,0,0,1,1,1.18,1.76,1.76,0,0,1-.82,1.59,2,2,0,0,1-1.87.12,2.47,2.47,0,0,1-1.35-1.29,3,3,0,0,1,.9-3.38,5.28,5.28,0,0,1,3.09-1.25,16.64,16.64,0,0,1,3.06.14,17.33,17.33,0,0,0,2.79.05,15.49,15.49,0,0,0,5.33-1.18,10,10,0,0,0,4.16-3.08,6.66,6.66,0,0,0,1.28-4.86,3.41,3.41,0,0,0-3.85-3c-1.88.33-3.25,2-4.08,3.6Z"></path><path d="M260.54,145.56a4.81,4.81,0,0,0-.81-3.93,6.08,6.08,0,0,0-3-2.2,6,6,0,0,0-3.71-.11,3.94,3.94,0,0,0-.88.35,4,4,0,0,0-.8.48l-.38.27-.31.3-.6.59a8.69,8.69,0,0,0-2.24,6.22,12.14,12.14,0,0,0,1.93,6.07,17.23,17.23,0,0,0,4.18,4.53,19.17,19.17,0,0,0,2.54,1.67,16.76,16.76,0,0,1,2.35,1.46,3.92,3.92,0,0,1,1.35,2,1.7,1.7,0,0,1-.6,1.87,1.35,1.35,0,0,1-1.75-.34,1.11,1.11,0,0,1,1-1.68,1.29,1.29,0,0,0-1.54.3,1.74,1.74,0,0,0-.33,1.76,2,2,0,0,0,1.41,1.24,2.52,2.52,0,0,0,1.86-.19,3,3,0,0,0,1.35-3.23,5.23,5.23,0,0,0-1.68-2.88,17.24,17.24,0,0,0-2.51-1.76,18.28,18.28,0,0,1-2.24-1.66,15.55,15.55,0,0,1-3.5-4.19,9.9,9.9,0,0,1-1.41-5,6.67,6.67,0,0,1,1.94-4.63,3.42,3.42,0,0,1,4.9,0c1.28,1.41,1.35,3.57,1,5.34Z"></path></g><path d="M272,168.9c6.21-.69,12.39-5.4,15.83-12.64l1.58-3.33L259.12,142.6l-.78,3.6c-1.69,7.84.33,15.33,4.82,19.67a4.47,4.47,0,0,1,1.11,4.55l-2.14,6.7a3.46,3.46,0,0,1-3.85,2.38,6.24,6.24,0,0,0-4.33.84l-1.58,1,18.77,6.4-.63-1.76a6.26,6.26,0,0,0-2.92-3.31,3.45,3.45,0,0,1-1.6-4.23l2.4-6.62A4.45,4.45,0,0,1,272,168.9Z" style="fill:#EFB062"></path><polygon points="251.92 179.44 272.66 186.5 271.15 193.51 248.84 185.91 251.92 179.44" style="fill:#D8954A"></polygon><polygon points="256.65 181.05 267.93 184.89 266.42 191.89 253.58 187.52 256.65 181.05" style="fill:#fff;opacity:0.2;isolation:isolate"></polygon><rect x="257.61" y="184.89" width="7.12" height="2.77" transform="translate(74.02 -74.27) rotate(18.81)" style="fill:#fff"></rect><path d="M264.25,165.4a5,5,0,0,1,.86,4.87l-2.57,7.57c-.51,1.48-1.13,1.9-2.91,2a6.12,6.12,0,0,0-3,.72l3.15,1.08a3.88,3.88,0,0,1,1.16-.29l.51,0a1.73,1.73,0,0,0,1.52-1.17l4.19-12.3a3,3,0,0,0-.34-2.64l-.53-.81A15.64,15.64,0,0,1,264,152.93l1.31-7.3-4.55-1.55-1,8.45C259.18,156.58,261,161.93,264.25,165.4Z" style="fill:#fff;opacity:0.30000000000000004;isolation:isolate"></path><polygon points="211.56 180.58 208.04 179.61 204.64 181.23 203.88 173.19 210.81 172.54 211.56 180.58" style="fill:#EFB062"></polygon><polygon points="211.56 180.58 208.04 179.61 204.64 181.23 203.88 173.19 210.81 172.54 211.56 180.58" style="fill:#fff;opacity:0.2;isolation:isolate"></polygon><polygon points="206.74 166.2 207.47 166.59 208.23 166.25 208.84 166.81 209.67 166.67 210.12 167.36 210.95 167.43 211.22 168.22 212.01 168.49 212.07 169.32 212.77 169.77 212.62 170.59 213.18 171.21 212.84 171.97 213.23 172.7 212.71 173.35 212.9 174.16 212.23 174.66 212.22 175.49 211.45 175.81 211.23 176.61 210.41 176.72 210 177.45 209.17 177.35 208.59 177.95 207.81 177.66 207.1 178.09 206.42 177.61 205.63 177.86 205.09 177.22 204.26 177.26 203.89 176.51 203.08 176.35 202.91 175.53 202.16 175.17 202.2 174.33 201.57 173.79 201.82 173 201.34 172.32 201.77 171.61 201.48 170.83 202.08 170.25 201.99 169.43 202.71 169.01 202.83 168.19 203.63 167.97 203.95 167.2 204.78 167.19 205.28 166.53 206.09 166.72 206.74 166.2" style="fill:#EFB062"></polygon><circle cx="207.29" cy="172.11" r="5.03" transform="translate(-37.08 58.63) rotate(-14.79)" style="fill:#fff;opacity:0.4;isolation:isolate"></circle><path d="M207.43,171.73l-.06.9.72-.06,0,.72-.74.06-.07,1.13-.71.07.08-1.13-.61.06-.08,1.12-.7.07.07-1.13-.69.07,0-.72.7-.07.07-.9-.7.07,0-.72.7-.07.09-1.29.7-.06-.09,1.28.61,0,.09-1.29.71-.07-.09,1.29.73-.07,0,.72Zm-.71.07-.61,0-.06.91.61-.06Z" style="fill:#EFB062"></path><path d="M209.61,174.26l-.33-3.61-.6.06-.05-.49a1.07,1.07,0,0,0,.46-.24.85.85,0,0,0,.3-.43l.49,0,.44,4.68Z" style="fill:#EFB062"></path></g></g></svg>