<svg width="188" height="202" viewBox="0 0 188 202" fill="none" xmlns="http://www.w3.org/2000/svg">
<rect width="188" height="202" fill="white"/>
<path d="M135.92 95.12C135.92 148.75 67.96 182.49 67.96 182.49C67.96 182.49 0 148.75 0 95.12C0 81.27 7.15 55.69 34.75 55.69C56.84 55.69 67.96 75.23 67.96 75.23C67.96 75.23 79.08 55.69 101.17 55.69C128.78 55.69 135.92 81.26 135.92 95.12Z" fill="#2E7D32"/>
<path d="M121.47 1.15C121.4 1.54 121.32 1.93 121.25 2.3C121.18 2.67 121.1 3.03 121.03 3.39C120.96 3.74 120.88 4.09 120.81 4.42C120.74 4.75 120.66 5.08 120.59 5.39C120.51 5.7 120.44 6.01 120.36 6.31C120.28 6.61 120.2 6.9 120.12 7.17C120.04 7.44 119.96 7.72 119.87 7.98C119.79 8.24 119.7 8.5 119.61 8.75C119.52 9 119.43 9.24 119.34 9.47C119.25 9.7 119.15 9.93 119.05 10.15C118.95 10.37 118.85 10.58 118.74 10.78C118.63 10.98 118.52 11.18 118.41 11.37C118.3 11.56 118.18 11.75 118.06 11.92C117.94 12.1 117.81 12.27 117.68 12.44C117.55 12.61 117.42 12.77 117.28 12.92C117.14 13.07 117 13.23 116.85 13.37C116.7 13.52 116.55 13.66 116.39 13.79C116.23 13.93 116.07 14.06 115.9 14.18C115.73 14.3 115.55 14.43 115.37 14.55C115.19 14.67 115 14.78 114.8 14.89C114.61 15 114.4 15.11 114.2 15.21C113.99 15.31 113.78 15.41 113.55 15.51C113.33 15.61 113.1 15.7 112.86 15.79C112.62 15.88 112.38 15.97 112.13 16.06C111.88 16.15 111.62 16.23 111.35 16.32C111.08 16.41 110.81 16.48 110.52 16.56C110.23 16.64 109.94 16.72 109.64 16.79C109.34 16.87 109.03 16.94 108.71 17.02C108.39 17.09 108.06 17.17 107.72 17.24C107.38 17.31 107.03 17.39 106.67 17.46C106.31 17.53 105.94 17.6 105.56 17.68C105.18 17.75 104.79 17.82 104.39 17.9C104.79 17.97 105.18 18.04 105.56 18.12C105.94 18.19 106.31 18.26 106.67 18.34C107.03 18.41 107.38 18.48 107.72 18.56C108.06 18.63 108.39 18.71 108.71 18.78C109.03 18.85 109.34 18.93 109.64 19.01C109.94 19.09 110.24 19.16 110.52 19.24C110.81 19.32 111.08 19.4 111.35 19.48C111.62 19.56 111.88 19.65 112.13 19.74C112.38 19.83 112.63 19.92 112.86 20.01C113.1 20.1 113.33 20.2 113.55 20.29C113.77 20.39 113.99 20.49 114.2 20.59C114.41 20.69 114.61 20.8 114.8 20.91C114.99 21.02 115.18 21.14 115.37 21.25C115.55 21.37 115.73 21.49 115.9 21.62C116.07 21.75 116.23 21.88 116.39 22.01C116.55 22.15 116.7 22.29 116.85 22.43C117 22.57 117.14 22.73 117.28 22.88C117.42 23.04 117.55 23.2 117.68 23.36C117.81 23.53 117.93 23.7 118.06 23.88C118.18 24.06 118.3 24.24 118.41 24.43C118.52 24.62 118.63 24.82 118.74 25.02C118.85 25.22 118.95 25.44 119.05 25.65C119.15 25.87 119.25 26.09 119.34 26.33C119.43 26.56 119.53 26.8 119.61 27.05C119.69 27.3 119.79 27.55 119.87 27.82C119.95 28.08 120.04 28.35 120.12 28.63C120.2 28.91 120.28 29.2 120.36 29.49C120.44 29.79 120.51 30.09 120.59 30.41C120.67 30.72 120.74 31.05 120.81 31.38C120.88 31.71 120.96 32.06 121.03 32.41C121.1 32.76 121.18 33.12 121.25 33.5C121.32 33.11 121.4 32.72 121.47 32.35C121.54 31.98 121.62 31.62 121.69 31.26C121.76 30.91 121.84 30.56 121.91 30.23C121.98 29.9 122.06 29.57 122.13 29.26C122.21 28.95 122.28 28.64 122.36 28.34C122.44 28.04 122.52 27.75 122.6 27.48C122.68 27.2 122.76 26.93 122.85 26.67C122.93 26.41 123.02 26.15 123.11 25.9C123.2 25.65 123.29 25.41 123.38 25.18C123.47 24.95 123.57 24.72 123.67 24.5C123.77 24.28 123.87 24.07 123.98 23.87C124.09 23.67 124.2 23.47 124.31 23.28C124.42 23.09 124.54 22.9 124.66 22.73C124.78 22.55 124.91 22.38 125.04 22.21C125.17 22.04 125.3 21.88 125.44 21.73C125.58 21.57 125.72 21.42 125.87 21.28C126.02 21.14 126.17 20.99 126.33 20.86C126.49 20.72 126.65 20.59 126.82 20.47C126.99 20.34 127.17 20.22 127.35 20.1C127.53 19.98 127.72 19.87 127.92 19.76C128.11 19.65 128.32 19.54 128.52 19.44C128.73 19.34 128.94 19.24 129.17 19.14C129.4 19.04 129.62 18.95 129.86 18.86C130.1 18.77 130.34 18.68 130.59 18.59C130.84 18.5 131.1 18.42 131.37 18.33C131.64 18.25 131.91 18.17 132.2 18.09C132.49 18.01 132.78 17.93 133.08 17.86C133.38 17.78 133.69 17.71 134.01 17.63C134.33 17.56 134.66 17.48 135 17.41C135.34 17.34 135.69 17.26 136.05 17.19C136.41 17.12 136.78 17.05 137.16 16.97C137.54 16.9 137.93 16.83 138.33 16.75C137.93 16.68 137.54 16.61 137.16 16.53C136.78 16.46 136.41 16.39 136.05 16.31C135.69 16.24 135.34 16.17 135 16.09C134.66 16.02 134.33 15.94 134.01 15.87C133.69 15.8 133.38 15.72 133.08 15.64C132.78 15.56 132.48 15.49 132.2 15.41C131.91 15.33 131.64 15.25 131.37 15.17C131.1 15.09 130.84 15 130.59 14.91C130.34 14.82 130.09 14.73 129.86 14.64C129.62 14.55 129.39 14.45 129.17 14.36C128.95 14.26 128.73 14.16 128.52 14.06C128.31 13.96 128.11 13.85 127.92 13.74C127.73 13.63 127.54 13.51 127.35 13.4C127.17 13.28 126.99 13.16 126.82 13.03C126.65 12.9 126.49 12.77 126.33 12.64C126.17 12.5 126.02 12.36 125.87 12.22C125.72 12.07 125.58 11.92 125.44 11.77C125.3 11.61 125.17 11.45 125.04 11.29C124.91 11.12 124.79 10.95 124.66 10.77C124.54 10.59 124.42 10.41 124.31 10.22C124.2 10.03 124.09 9.83 123.98 9.63C123.87 9.43 123.77 9.21 123.67 9C123.57 8.78 123.47 8.56 123.38 8.32C123.29 8.09 123.19 7.85 123.11 7.6C123.03 7.35 122.93 7.1 122.85 6.83C122.77 6.57 122.68 6.3 122.6 6.02C122.52 5.74 122.44 5.45 122.36 5.16C122.28 4.86 122.21 4.56 122.13 4.24C122.05 3.93 121.98 3.6 121.91 3.27C121.84 2.94 121.76 2.59 121.69 2.24C121.62 1.89 121.54 1.53 121.47 1.15C121.4 0.78 121.32 0.4 121.25 0L121.47 1.15Z" fill="#2E7D32"/>
<path d="M151.84 13.02C151.68 13.85 151.53 14.66 151.37 15.45C151.22 16.24 151.06 17 150.91 17.75C150.75 18.5 150.6 19.22 150.44 19.93C150.28 20.63 150.12 21.32 149.96 21.99C149.8 22.66 149.64 23.3 149.47 23.93C149.3 24.56 149.14 25.17 148.97 25.76C148.8 26.35 148.62 26.93 148.45 27.48C148.28 28.03 148.09 28.58 147.9 29.1C147.71 29.62 147.52 30.13 147.32 30.62C147.12 31.11 146.92 31.59 146.71 32.05C146.5 32.51 146.28 32.96 146.06 33.39C145.84 33.82 145.6 34.24 145.37 34.64C145.14 35.04 144.88 35.44 144.63 35.81C144.38 36.18 144.11 36.55 143.84 36.91C143.57 37.26 143.28 37.6 142.99 37.93C142.7 38.26 142.39 38.58 142.08 38.89C141.77 39.2 141.44 39.5 141.11 39.78C140.78 40.06 140.43 40.35 140.07 40.61C139.71 40.88 139.34 41.14 138.95 41.39C138.56 41.64 138.17 41.88 137.75 42.12C137.33 42.36 136.91 42.58 136.47 42.8C136.03 43.02 135.58 43.23 135.11 43.44C134.64 43.65 134.16 43.85 133.65 44.04C133.15 44.23 132.63 44.42 132.1 44.61C131.57 44.79 131.02 44.97 130.45 45.15C129.88 45.33 129.3 45.5 128.69 45.66C128.09 45.83 127.47 45.99 126.83 46.15C126.19 46.31 125.53 46.47 124.85 46.63C124.17 46.79 123.47 46.94 122.75 47.1C122.03 47.25 121.29 47.41 120.53 47.56C119.77 47.71 118.99 47.86 118.19 48.02C117.39 48.17 116.56 48.32 115.72 48.48C116.57 48.63 117.39 48.79 118.19 48.94C118.99 49.09 119.77 49.24 120.53 49.4C121.29 49.55 122.03 49.71 122.75 49.86C123.47 50.01 124.17 50.17 124.85 50.33C125.53 50.49 126.19 50.65 126.83 50.81C127.47 50.97 128.09 51.14 128.69 51.3C129.29 51.47 129.88 51.64 130.45 51.82C131.02 52 131.57 52.18 132.1 52.36C132.63 52.54 133.15 52.73 133.65 52.93C134.15 53.12 134.64 53.33 135.11 53.53C135.58 53.74 136.03 53.95 136.47 54.17C136.91 54.39 137.34 54.62 137.75 54.85C138.16 55.08 138.56 55.33 138.95 55.58C139.34 55.83 139.71 56.09 140.07 56.36C140.43 56.63 140.78 56.91 141.11 57.19C141.45 57.48 141.77 57.77 142.08 58.08C142.39 58.39 142.7 58.71 142.99 59.04C143.28 59.37 143.57 59.71 143.84 60.06C144.11 60.41 144.38 60.78 144.63 61.16C144.88 61.54 145.13 61.93 145.37 62.33C145.61 62.73 145.84 63.15 146.06 63.58C146.28 64.01 146.5 64.46 146.71 64.92C146.92 65.38 147.13 65.86 147.32 66.35C147.52 66.84 147.71 67.35 147.9 67.87C148.09 68.39 148.27 68.93 148.45 69.49C148.63 70.05 148.8 70.62 148.97 71.21C149.14 71.8 149.31 72.41 149.47 73.04C149.63 73.67 149.8 74.31 149.96 74.98C150.12 75.65 150.28 76.33 150.44 77.04C150.6 77.75 150.75 78.47 150.91 79.22C151.07 79.97 151.22 80.73 151.37 81.52C151.52 82.31 151.68 83.12 151.84 83.95C152 83.12 152.15 82.31 152.31 81.52C152.46 80.73 152.62 79.97 152.77 79.22C152.93 78.47 153.08 77.75 153.24 77.04C153.4 76.34 153.56 75.65 153.72 74.98C153.88 74.31 154.04 73.67 154.21 73.04C154.38 72.41 154.54 71.8 154.71 71.21C154.88 70.62 155.06 70.04 155.23 69.49C155.4 68.94 155.59 68.39 155.78 67.87C155.97 67.35 156.16 66.84 156.36 66.35C156.56 65.86 156.76 65.38 156.97 64.92C157.18 64.46 157.4 64.01 157.62 63.58C157.84 63.15 158.08 62.73 158.31 62.33C158.55 61.93 158.8 61.53 159.05 61.16C159.3 60.79 159.57 60.42 159.84 60.06C160.11 59.71 160.4 59.37 160.69 59.04C160.98 58.71 161.29 58.39 161.6 58.08C161.91 57.77 162.24 57.47 162.57 57.19C162.91 56.9 163.25 56.62 163.61 56.36C163.97 56.1 164.34 55.83 164.73 55.58C165.12 55.33 165.51 55.09 165.93 54.85C166.35 54.61 166.77 54.39 167.21 54.17C167.65 53.95 168.1 53.74 168.57 53.53C169.04 53.32 169.52 53.12 170.03 52.93C170.53 52.74 171.05 52.55 171.58 52.36C172.11 52.18 172.66 52 173.23 51.82C173.8 51.64 174.38 51.47 174.99 51.3C175.59 51.13 176.21 50.97 176.85 50.81C177.49 50.65 178.15 50.49 178.83 50.33C179.51 50.17 180.21 50.02 180.93 49.86C181.65 49.71 182.39 49.55 183.15 49.4C183.91 49.25 184.69 49.1 185.49 48.94C186.29 48.79 187.12 48.64 187.96 48.48C187.11 48.33 186.29 48.17 185.49 48.02C184.69 47.87 183.91 47.72 183.15 47.56C182.39 47.4 181.65 47.25 180.93 47.1C180.21 46.95 179.51 46.79 178.83 46.63C178.15 46.47 177.49 46.31 176.85 46.15C176.21 45.99 175.59 45.82 174.99 45.66C174.39 45.49 173.8 45.32 173.23 45.15C172.66 44.98 172.11 44.79 171.58 44.61C171.05 44.43 170.53 44.24 170.03 44.04C169.53 43.85 169.04 43.64 168.57 43.44C168.1 43.23 167.65 43.02 167.21 42.8C166.77 42.58 166.34 42.35 165.93 42.12C165.52 41.89 165.12 41.64 164.73 41.39C164.34 41.14 163.97 40.88 163.61 40.61C163.25 40.34 162.9 40.06 162.57 39.78C162.24 39.5 161.91 39.2 161.6 38.89C161.29 38.58 160.98 38.26 160.69 37.93C160.4 37.6 160.11 37.26 159.84 36.91C159.57 36.56 159.3 36.19 159.05 35.81C158.8 35.43 158.55 35.04 158.31 34.64C158.07 34.24 157.84 33.82 157.62 33.39C157.4 32.96 157.18 32.51 156.97 32.05C156.76 31.59 156.55 31.11 156.36 30.62C156.16 30.13 155.97 29.62 155.78 29.1C155.59 28.58 155.41 28.04 155.23 27.48C155.05 26.92 154.88 26.35 154.71 25.76C154.54 25.17 154.37 24.56 154.21 23.93C154.05 23.3 153.88 22.66 153.72 21.99C153.56 21.32 153.4 20.64 153.24 19.93C153.08 19.22 152.93 18.5 152.77 17.75C152.61 17 152.46 16.24 152.31 15.45C152.16 14.66 152 13.85 151.84 13.02Z" fill="#2E7D32"/>
</svg>
