<svg version="1.1" id="Capa_1" xmlns="http://www.w3.org/2000/svg" x="0" y="0" viewBox="0 0 331.28 113.28" xml:space="preserve"><style>.st0{fill:#010000}.st1{fill:#101914}</style><switch><g><path d="M148.44 58.91h1.65v21.85h-1.65zM165.78 85.54h-3.74v2.35h3.46v2.37h-3.46v5.06h-2.67V83.17h6.41v2.37zM169.76 87.19v4.48c0 .36.03.93.43 1.31.17.16.49.38 1.04.38.47 0 .83-.16 1.06-.38.36-.36.42-.91.42-1.31v-4.48h2.49v4.74c0 .93-.09 1.8-.87 2.61-.88.91-2.18 1.06-3.1 1.06-.95 0-2.23-.15-3.12-1.06-.71-.73-.85-1.55-.85-2.44v-4.9h2.5zM177.14 87.19h2.49v.97c.76-1.02 1.66-1.18 2.39-1.18.68 0 1.56.13 2.22.82.73.77.78 1.73.78 2.39v5.14h-2.49v-4.17c0-.53-.02-1.2-.42-1.62-.19-.2-.5-.36-.95-.36-.52 0-.85.22-1.04.44-.42.44-.49 1.02-.49 1.55v4.17h-2.49v-8.15zM195.39 95.32h-2.49v-.98c-.38.58-1.07 1.26-2.44 1.26-1.14 0-1.98-.38-2.65-1.11-.8-.84-1.21-2-1.21-3.26 0-1.35.47-2.46 1.21-3.21.68-.67 1.63-1.09 2.68-1.09.85 0 1.78.29 2.41 1.18v-6.07h2.49v13.28zm-5.63-5.59c-.36.36-.61.89-.61 1.55 0 .6.24 1.13.61 1.49.38.38.87.56 1.3.56.47 0 1.02-.2 1.42-.6.29-.29.57-.78.57-1.46 0-.69-.26-1.17-.55-1.49-.4-.44-.87-.6-1.4-.6-.51 0-.95.14-1.34.55zM203.32 87.19h2.49v8.12h-2.49v-.98c-.68 1.09-1.65 1.26-2.29 1.26-1.11 0-2.04-.29-2.89-1.24-.81-.91-1.13-1.97-1.13-3.04 0-1.37.49-2.53 1.2-3.28.68-.71 1.61-1.11 2.68-1.11.66 0 1.71.16 2.43 1.18v-.91zm-3.17 2.57c-.26.27-.57.75-.57 1.48s.29 1.2.52 1.46c.35.38.88.64 1.47.64.5 0 .97-.22 1.3-.56.33-.33.61-.84.61-1.53 0-.58-.21-1.13-.57-1.49-.38-.38-.94-.57-1.39-.57-.54-.01-1.04.23-1.37.57zM213.56 89.76c-.61-.53-1.23-.62-1.63-.62-.78 0-1.25.4-1.42.58-.33.35-.57.87-.57 1.53 0 .6.21 1.11.52 1.46.38.44.95.66 1.51.66.43 0 1.02-.13 1.59-.64v2.37c-.66.38-1.28.49-1.97.49-1.3 0-2.29-.49-3-1.22-.59-.6-1.21-1.62-1.21-3.1 0-1.38.55-2.48 1.28-3.21.87-.86 1.89-1.15 2.94-1.15.68 0 1.3.13 1.96.46v2.39zM216.65 82.2c.81 0 1.46.67 1.46 1.53s-.64 1.53-1.46 1.53c-.81 0-1.46-.67-1.46-1.53 0-.85.64-1.53 1.46-1.53zm1.24 4.99v8.12h-2.49v-8.12h2.49zM227.54 94.28c-.69.73-1.87 1.31-3.38 1.31-1.51 0-2.69-.58-3.38-1.31-.78-.82-1.16-1.99-1.16-3.02 0-1.04.38-2.2 1.16-3.02.69-.73 1.87-1.31 3.38-1.31 1.51 0 2.69.58 3.38 1.31.78.82 1.16 1.99 1.16 3.02s-.38 2.2-1.16 3.02zm-4.78-4.55c-.36.38-.57.87-.57 1.53 0 .75.28 1.22.57 1.53.31.33.76.58 1.42.58.55 0 1.02-.2 1.39-.58.36-.38.57-.87.57-1.53s-.21-1.15-.57-1.53c-.36-.38-.83-.58-1.4-.58-.58-.01-1.04.19-1.41.58zm3.92-6.25l-2.63 2.46-1.13-.87 2.13-2.77 1.63 1.18zM230.26 87.19h2.49v.97c.76-1.02 1.66-1.18 2.39-1.18.68 0 1.56.13 2.22.82.73.77.78 1.73.78 2.39v5.14h-2.49v-4.17c0-.53-.02-1.2-.42-1.62-.19-.2-.5-.36-.95-.36-.52 0-.85.22-1.04.44-.42.44-.49 1.02-.49 1.55v4.17h-2.49v-8.15zM248.47 85.54v9.78h-2.67v-9.78h-2.51v-2.37h7.69v2.37h-2.51zM258.99 91.71h-5.77c0 .44.16 1.02.47 1.38.38.44.9.51 1.28.51.36 0 .75-.07 1.01-.24.03-.02.33-.22.54-.67l2.36.26c-.35 1.15-1.04 1.75-1.49 2.04-.75.47-1.58.6-2.44.6-1.16 0-2.18-.22-3.08-1.17-.68-.71-1.16-1.78-1.16-3.13 0-1.17.4-2.37 1.18-3.21.94-.98 2.1-1.17 2.96-1.17.87 0 2.11.16 3.07 1.22.92 1.02 1.09 2.3 1.09 3.3v.28zm-2.3-1.57c-.02-.07-.14-.58-.5-.95a1.67 1.67 0 00-1.18-.46c-.64 0-1.02.27-1.26.53-.19.22-.36.51-.43.87h3.37zM263.11 82.04v13.28h-2.49V82.04h2.49zM273.04 91.71h-5.77c0 .44.16 1.02.47 1.38.38.44.9.51 1.28.51.36 0 .75-.07 1.01-.24.03-.02.33-.22.54-.67l2.36.26c-.35 1.15-1.04 1.75-1.49 2.04-.75.47-1.58.6-2.44.6-1.16 0-2.18-.22-3.08-1.17-.68-.71-1.16-1.78-1.16-3.13 0-1.17.4-2.37 1.18-3.21.94-.98 2.1-1.17 2.96-1.17.87 0 2.11.16 3.07 1.22.92 1.02 1.09 2.3 1.09 3.3v.28zm-2.3-1.57c-.02-.07-.14-.58-.5-.95a1.67 1.67 0 00-1.18-.46c-.64 0-1.02.27-1.26.53-.19.22-.36.51-.43.87h3.37zM277.31 89.31v6.01h-2.49v-6.01h-.9V87.2h.9v-1.6c0-.91.09-1.95.87-2.82.5-.56 1.21-.93 2.17-.93.55 0 1.01.11 1.42.27v2.3c-.28-.18-.64-.31-.95-.31-.38 0-.62.18-.73.33-.28.38-.28 1.02-.28 1.4v1.37h1.97v2.11h-1.98zM287.79 94.28c-.69.73-1.87 1.31-3.38 1.31s-2.68-.58-3.38-1.31c-.78-.82-1.16-1.99-1.16-3.02 0-1.04.38-2.2 1.16-3.02.69-.73 1.87-1.31 3.38-1.31s2.68.58 3.38 1.31c.78.82 1.16 1.99 1.16 3.02s-.38 2.2-1.16 3.02zm-4.78-4.55c-.36.38-.57.87-.57 1.53 0 .75.28 1.22.57 1.53.31.33.76.58 1.42.58.55 0 1.02-.2 1.39-.58.36-.38.57-.87.57-1.53s-.21-1.15-.57-1.53c-.36-.38-.83-.58-1.4-.58-.58-.01-1.05.19-1.41.58zm3.91-6.25l-2.63 2.46-1.13-.87 2.13-2.77 1.63 1.18zM290.51 87.19H293v.97c.76-1.02 1.66-1.18 2.39-1.18.68 0 1.56.13 2.22.82.73.77.78 1.73.78 2.39v5.14h-2.49v-4.17c0-.53-.02-1.2-.42-1.62-.19-.2-.5-.36-.95-.36-.52 0-.85.22-1.04.44-.42.44-.49 1.02-.49 1.55v4.17h-2.49v-8.15zM301.75 82.2c.81 0 1.46.67 1.46 1.53s-.64 1.53-1.46 1.53c-.81 0-1.46-.67-1.46-1.53.01-.85.65-1.53 1.46-1.53zm1.25 4.99v8.12h-2.49v-8.12H303zM310.92 89.76c-.61-.53-1.23-.62-1.63-.62-.78 0-1.25.4-1.42.58-.33.35-.57.87-.57 1.53 0 .6.21 1.11.52 1.46.38.44.95.66 1.51.66.43 0 1.02-.13 1.59-.64v2.37c-.66.38-1.28.49-1.98.49-1.3 0-2.29-.49-3-1.22-.59-.6-1.21-1.62-1.21-3.1 0-1.38.55-2.48 1.28-3.21.87-.86 1.89-1.15 2.94-1.15.68 0 1.3.13 1.96.46v2.39zM318.51 87.19H321v8.12h-2.49v-.98c-.68 1.09-1.65 1.26-2.29 1.26-1.11 0-2.04-.29-2.89-1.24-.81-.91-1.13-1.97-1.13-3.04 0-1.37.49-2.53 1.2-3.28.68-.71 1.61-1.11 2.68-1.11.66 0 1.71.16 2.43 1.18v-.91zm-3.17 2.57c-.26.27-.57.75-.57 1.48s.29 1.2.52 1.46c.35.38.88.64 1.47.64.5 0 .97-.22 1.3-.56.33-.33.61-.84.61-1.53 0-.58-.21-1.13-.57-1.49-.38-.38-.94-.57-1.39-.57-.54-.01-1.05.23-1.37.57z"/><g><path class="st0" d="M159.31 63.28h3.51c.74 0 1.73.09 2.42.8.4.4.71 1.07.71 1.98 0 .75-.18 1.33-.51 1.8-.36.52-.79.76-1.15.88.56.14.97.42 1.25.69.51.52.71 1.09.71 1.84 0 1.23-.46 2.03-.89 2.48-.87.92-2.16 1.09-3.31 1.09h-4.08l1.34-11.56zm1.44 9.48h.92c.48 0 1.25-.05 1.65-.43.15-.14.4-.47.4-1.11 0-.24-.05-.61-.3-.87-.36-.38-1.12-.4-1.35-.4h-.99l-.33 2.81zm.56-4.78h.51c.43 0 1.02-.05 1.4-.43.25-.24.38-.66.38-1.04 0-.47-.2-.73-.35-.87-.31-.26-.76-.28-1.12-.28h-.53l-.29 2.62zM174.55 72.66h-4.15l-1.04 2.18h-2.73l5.79-11.56h2.34l2.95 11.56h-2.6l-.56-2.18zm-.47-2.05l-.89-4.07-1.84 4.07h2.73zM183.69 63.28c1.05 0 2.09.1 2.91 1.04.38.42.79 1.16.79 2.36 0 1.09-.36 1.96-.91 2.53-.48.49-1.14.82-1.74.94l2.83 4.7h-2.96l-2.65-4.56-.53 4.56h-2.53l1.35-11.56h3.44zm-1.53 5.26h.63c.41 0 1.04-.05 1.48-.42.44-.36.56-.87.56-1.35 0-.36-.08-.83-.53-1.13-.33-.23-.81-.28-1.38-.28h-.38l-.38 3.18zM197.07 74.48c-.36.19-1.25.62-2.67.62-2.07 0-3.28-.94-3.87-1.54-.71-.75-1.48-1.99-1.48-4s.72-3.66 1.75-4.73c.92-.97 2.39-1.8 4.39-1.8 1.7 0 2.72.59 3.11.83l-.3 2.82c-.44-.47-1.28-1.16-2.75-1.16-1.05 0-1.91.29-2.6 1.09-.67.76-.99 1.8-.99 2.72 0 .97.36 1.85.86 2.37.49.52 1.32.9 2.32.9 1.09 0 1.96-.49 2.57-1l-.34 2.88zM206 65.54h-3.59l-.26 2.24h3.46l-.26 2.25h-3.46l-.3 2.56h3.65l-.26 2.25h-6.12l1.35-11.56h6.06l-.27 2.26zM211.01 63.28l-1.09 9.31h3.42l-.26 2.25h-5.96l1.35-11.56h2.54zM224.74 64.53c.94.95 1.55 2.41 1.55 4.11 0 1.65-.54 3.43-1.7 4.68-1.38 1.49-3.11 1.78-4.54 1.78-1.37 0-2.88-.26-4.18-1.65-.76-.81-1.55-2.15-1.55-4.04 0-2.03.77-3.6 1.81-4.64 1.4-1.4 3.09-1.75 4.51-1.75 2.11 0 3.38.78 4.1 1.51zm-6.81 2.06c-.64.71-1 1.68-1 2.65 0 1.06.38 1.89.89 2.43.74.8 1.63.97 2.4.97.74 0 1.65-.12 2.45-.99.59-.64 1.02-1.65 1.02-2.84 0-.75-.15-1.68-.87-2.43-.72-.75-1.6-.9-2.27-.9-1.09 0-1.96.39-2.62 1.11zM227.5 74.84l1.37-11.56h2.21l5.05 7.52.89-7.52h2.53l-1.35 11.56h-2.21l-5.09-7.56-.87 7.56h-2.53zM247.41 72.66h-4.15l-1.04 2.18h-2.73l5.79-11.56h2.34l2.95 11.56h-2.6l-.56-2.18zm-.47-2.05l-.89-4.07-1.84 4.07h2.73z"/></g><g><path class="st1" d="M76.45 14.8H54.53L10.71 58.62v17.74h43.82v21.91h21.92V58.62H32.62zM85.84 36.71l21.91-21.91H85.84zM129.66 36.71V14.8h-21.91v21.91L85.84 58.62v21.91h21.91V58.62zM129.66 58.62l-21.91 21.91h21.91z"/></g></g></switch></svg>