<?xml version="1.0" encoding="UTF-8"?>
<svg xmlns="http://www.w3.org/2000/svg" xmlns:xlink="http://www.w3.org/1999/xlink" width="500px" height="189px" viewBox="0 0 500 189" version="1.1">
<g id="surface1">
<path style=" stroke:none;fill-rule:evenodd;fill:rgb(5.098039%,5.490196%,5.882353%);fill-opacity:1;" d="M 173.691406 10.683594 C 173.691406 4.804688 178.515625 0 184.421875 0 C 190.324219 0 195.148438 4.804688 195.148438 10.683594 C 195.148438 16.558594 190.324219 21.363281 184.421875 21.363281 C 178.515625 21.363281 173.691406 16.558594 173.691406 10.683594 Z M 17.839844 149.230469 C 20.503906 155.675781 26.726562 160.164062 34.089844 160.164062 C 38.597656 160.164062 42.726562 158.457031 45.835938 155.675781 L 56.5 166.296875 C 50.535156 172.171875 42.28125 175.839844 33.203125 175.839844 C 14.855469 175.839844 0 161.050781 0 142.78125 C 0 124.578125 14.855469 109.789062 33.203125 109.726562 C 42.28125 109.726562 50.535156 113.390625 56.5 119.269531 L 45.960938 129.886719 C 42.851562 126.980469 38.660156 125.210938 34.089844 125.210938 C 26.726562 125.210938 20.441406 129.761719 17.839844 136.144531 C 17.777344 136.207031 17.777344 136.207031 17.777344 136.273438 C 17.671875 136.425781 17.613281 136.621094 17.558594 136.789062 L 17.523438 136.90625 C 17.523438 136.9375 17.503906 136.984375 17.488281 137.03125 C 17.472656 137.078125 17.457031 137.125 17.457031 137.15625 C 17.394531 137.285156 17.332031 137.472656 17.269531 137.664062 C 17.269531 137.6875 17.257812 137.726562 17.242188 137.769531 C 17.226562 137.832031 17.203125 137.90625 17.203125 137.980469 C 17.171875 138.042969 17.15625 138.121094 17.140625 138.199219 C 17.125 138.277344 17.109375 138.359375 17.078125 138.421875 C 17.078125 138.484375 17.0625 138.546875 17.046875 138.609375 C 17.03125 138.671875 17.015625 138.738281 17.015625 138.800781 C 17.015625 138.90625 16.996094 138.988281 16.976562 139.066406 C 16.964844 139.128906 16.949219 139.1875 16.949219 139.242188 C 16.949219 139.304688 16.933594 139.386719 16.917969 139.464844 C 16.902344 139.542969 16.886719 139.621094 16.886719 139.683594 C 16.886719 139.75 16.871094 139.8125 16.855469 139.875 C 16.839844 139.9375 16.824219 140 16.824219 140.066406 C 16.824219 140.160156 16.808594 140.238281 16.792969 140.316406 C 16.777344 140.394531 16.761719 140.476562 16.761719 140.570312 C 16.695312 140.632812 16.695312 140.761719 16.695312 140.886719 C 16.632812 141.074219 16.632812 141.265625 16.632812 141.453125 L 16.632812 143.855469 C 16.695312 144.046875 16.695312 144.234375 16.695312 144.425781 C 16.761719 144.550781 16.761719 144.679688 16.761719 144.804688 C 16.761719 144.898438 16.777344 144.980469 16.792969 145.058594 C 16.808594 145.136719 16.824219 145.214844 16.824219 145.308594 C 16.824219 145.375 16.839844 145.4375 16.855469 145.5 C 16.871094 145.5625 16.886719 145.625 16.886719 145.691406 C 16.886719 145.753906 16.902344 145.832031 16.917969 145.910156 C 16.933594 145.992188 16.949219 146.070312 16.949219 146.132812 C 16.949219 146.238281 16.96875 146.320312 16.988281 146.398438 C 17 146.460938 17.015625 146.519531 17.015625 146.574219 C 17.015625 146.703125 17.015625 146.828125 17.078125 146.953125 C 17.109375 147.015625 17.125 147.097656 17.140625 147.175781 C 17.15625 147.253906 17.171875 147.332031 17.203125 147.398438 C 17.203125 147.460938 17.203125 147.585938 17.269531 147.710938 C 17.332031 147.839844 17.394531 148.027344 17.457031 148.21875 C 17.457031 148.25 17.472656 148.296875 17.488281 148.34375 C 17.503906 148.390625 17.523438 148.441406 17.523438 148.472656 C 17.554688 148.566406 17.601562 148.675781 17.648438 148.785156 C 17.695312 148.898438 17.742188 149.007812 17.777344 149.101562 C 17.839844 149.167969 17.839844 149.167969 17.839844 149.230469 Z M 233.621094 160.164062 C 226.257812 160.164062 220.035156 155.675781 217.371094 149.230469 C 217.371094 149.167969 217.371094 149.167969 217.304688 149.101562 C 217.273438 149.007812 217.226562 148.898438 217.179688 148.785156 L 217.148438 148.71875 L 217.121094 148.652344 L 217.066406 148.515625 L 217.050781 148.472656 C 217.050781 148.441406 217.035156 148.390625 217.019531 148.34375 C 217.003906 148.296875 216.988281 148.25 216.988281 148.21875 C 216.925781 148.027344 216.859375 147.839844 216.796875 147.710938 C 216.734375 147.585938 216.734375 147.460938 216.734375 147.398438 C 216.703125 147.332031 216.6875 147.253906 216.671875 147.175781 C 216.65625 147.097656 216.640625 147.015625 216.605469 146.953125 C 216.542969 146.828125 216.542969 146.703125 216.542969 146.574219 C 216.542969 146.519531 216.53125 146.460938 216.515625 146.398438 C 216.5 146.320312 216.480469 146.238281 216.480469 146.132812 C 216.480469 146.070312 216.464844 145.992188 216.449219 145.910156 C 216.433594 145.832031 216.417969 145.753906 216.417969 145.691406 C 216.417969 145.625 216.402344 145.5625 216.386719 145.5 C 216.371094 145.4375 216.351562 145.375 216.351562 145.308594 C 216.351562 145.214844 216.335938 145.136719 216.320312 145.058594 C 216.304688 144.980469 216.289062 144.898438 216.289062 144.804688 C 216.289062 144.679688 216.289062 144.550781 216.226562 144.425781 C 216.226562 144.234375 216.226562 144.046875 216.164062 143.855469 L 216.164062 141.457031 C 216.164062 141.265625 216.164062 141.074219 216.226562 140.886719 C 216.226562 140.761719 216.226562 140.632812 216.289062 140.570312 C 216.289062 140.476562 216.304688 140.394531 216.320312 140.316406 C 216.335938 140.238281 216.351562 140.160156 216.351562 140.066406 C 216.351562 140 216.371094 139.9375 216.386719 139.875 C 216.402344 139.8125 216.417969 139.75 216.417969 139.683594 C 216.417969 139.621094 216.433594 139.542969 216.449219 139.464844 C 216.464844 139.386719 216.480469 139.304688 216.480469 139.242188 C 216.480469 139.1875 216.492188 139.128906 216.507812 139.066406 C 216.523438 138.988281 216.542969 138.90625 216.542969 138.800781 C 216.542969 138.738281 216.558594 138.675781 216.574219 138.609375 C 216.589844 138.546875 216.605469 138.484375 216.605469 138.421875 C 216.640625 138.359375 216.65625 138.277344 216.671875 138.199219 C 216.6875 138.121094 216.703125 138.042969 216.734375 137.980469 C 216.734375 137.90625 216.757812 137.832031 216.773438 137.769531 C 216.789062 137.726562 216.796875 137.6875 216.796875 137.664062 C 216.859375 137.472656 216.925781 137.285156 216.988281 137.15625 C 216.988281 137.125 217.003906 137.078125 217.019531 137.03125 C 217.035156 136.984375 217.050781 136.9375 217.050781 136.90625 L 217.089844 136.789062 C 217.140625 136.621094 217.203125 136.425781 217.304688 136.273438 C 217.304688 136.207031 217.304688 136.207031 217.371094 136.144531 C 219.972656 129.761719 226.257812 125.210938 233.621094 125.210938 C 238.191406 125.210938 242.382812 126.980469 245.492188 129.886719 L 256.03125 119.394531 C 250.0625 113.519531 241.8125 109.851562 232.730469 109.851562 C 214.386719 109.851562 199.53125 124.640625 199.53125 142.910156 C 199.53125 161.175781 214.386719 175.964844 232.730469 175.964844 C 241.8125 175.964844 250.0625 172.300781 256.03125 166.421875 L 245.367188 155.800781 C 242.253906 158.457031 238.128906 160.164062 233.621094 160.164062 Z M 435.691406 110.800781 L 435.691406 126.792969 L 419.628906 126.792969 L 419.628906 174.828125 L 403.566406 174.828125 L 403.566406 126.792969 L 399.949219 126.792969 L 399.949219 110.800781 L 403.566406 110.800781 L 403.566406 94.746094 L 419.628906 94.746094 L 419.628906 110.800781 Z M 462.683594 131.773438 C 458.695312 130.730469 455.410156 129.867188 454.226562 129.257812 C 453.085938 128.6875 452.132812 127.867188 451.433594 126.792969 L 435.691406 126.792969 C 436.324219 134.882812 441.023438 140 461.019531 145.4375 L 461.722656 145.625 L 462.265625 145.769531 C 469.484375 147.699219 475.621094 149.335938 475.621094 154.539062 C 475.621094 157.636719 474.542969 162.628906 463.371094 162.628906 C 455.878906 162.628906 449.277344 158.078125 449.277344 151.882812 L 433.277344 151.882812 L 433.277344 152.261719 C 433.277344 163.386719 443.054688 175.839844 463.179688 175.839844 C 483.050781 175.839844 491.875 165.21875 491.875 154.476562 C 491.875 150.683594 491.175781 143.226562 481.335938 137.851562 C 477.023438 135.53125 468.976562 133.421875 462.683594 131.773438 Z M 58.277344 142.71875 C 58.277344 131.089844 66.914062 109.851562 91.417969 109.851562 C 115.921875 109.851562 124.617188 131.089844 124.554688 142.71875 C 124.554688 155.042969 117.382812 175.777344 91.417969 175.777344 C 65.453125 175.777344 58.277344 154.414062 58.277344 142.71875 Z M 74.402344 142.71875 C 74.402344 152.957031 81.003906 161.363281 91.417969 161.363281 C 102.210938 161.363281 108.429688 152.957031 108.429688 142.71875 C 108.429688 132.542969 101.890625 124.199219 91.417969 124.199219 C 80.816406 124.199219 74.402344 132.480469 74.402344 142.71875 Z M 290.757812 109.789062 C 272.347656 109.789062 257.808594 124.707031 257.808594 142.972656 C 257.808594 161.113281 273.425781 175.839844 291.960938 175.839844 C 309.421875 175.839844 317.546875 165.535156 321.609375 160.355469 L 308.847656 153.148438 C 308.847656 153.148438 303.074219 161.996094 291.835938 161.996094 C 281.296875 161.996094 274.378906 154.03125 273.679688 148.34375 L 323.324219 148.34375 C 325.988281 131.910156 315.640625 109.789062 290.757812 109.789062 Z M 273.042969 136.273438 C 274.566406 130.140625 280.410156 122.808594 290.691406 122.808594 C 301.804688 122.808594 307.261719 130.140625 308.914062 136.273438 Z M 18.410156 36.660156 C 18.917969 36.152344 25.964844 29.707031 35.867188 29.707031 C 60.054688 29.707031 67.675781 51.007812 67.675781 62.699219 C 67.675781 74.457031 61.070312 95.820312 35.867188 95.820312 C 25.289062 95.820312 19.234375 89.699219 18.460938 88.917969 L 18.410156 88.867188 L 18.410156 110.167969 L 2.347656 110.167969 L 2.347656 30.71875 L 18.410156 30.71875 Z M 17.394531 62.636719 C 17.394531 72.941406 23.679688 81.347656 34.472656 81.347656 C 44.882812 81.347656 51.550781 72.941406 51.550781 62.636719 C 51.550781 52.398438 45.074219 44.117188 34.472656 44.117188 C 23.933594 44.117188 17.394531 52.460938 17.394531 62.636719 Z M 364.523438 109.789062 C 354.621094 109.789062 347.574219 116.234375 347.066406 116.742188 L 347.066406 110.800781 L 331.003906 110.800781 L 331.003906 190.25 L 347.066406 190.25 L 347.066406 168.949219 L 347.117188 169 C 347.890625 169.78125 353.945312 175.902344 364.523438 175.902344 C 389.726562 175.902344 396.332031 154.539062 396.332031 142.78125 C 396.332031 131.089844 388.648438 109.789062 364.523438 109.789062 Z M 363.128906 161.429688 C 352.335938 161.429688 346.050781 153.023438 346.050781 142.71875 C 346.050781 132.542969 352.589844 124.199219 363.128906 124.199219 C 373.730469 124.199219 380.207031 132.480469 380.207031 142.71875 C 380.207031 153.023438 373.539062 161.429688 363.128906 161.429688 Z M 221.304688 37.355469 C 225.875 32.234375 232.414062 29.707031 239.777344 29.707031 C 251.144531 29.707031 265.679688 36.21875 265.679688 52.714844 L 265.679688 94.808594 L 249.617188 94.808594 L 249.617188 56.632812 C 249.617188 48.480469 243.84375 43.675781 235.96875 43.675781 C 226.445312 43.675781 221.304688 51.765625 221.304688 61.308594 L 221.304688 94.746094 L 205.242188 94.746094 L 205.242188 30.71875 L 221.304688 30.71875 Z M 166.453125 109.789062 C 159.089844 109.789062 152.550781 112.316406 147.980469 117.4375 L 147.980469 110.800781 L 131.921875 110.800781 L 131.921875 174.828125 L 147.980469 174.828125 L 147.980469 141.390625 C 147.980469 131.847656 153.125 123.757812 162.644531 123.757812 C 170.519531 123.757812 176.296875 128.5625 176.296875 136.714844 L 176.296875 174.890625 L 192.355469 174.890625 L 192.355469 132.859375 C 192.355469 116.234375 177.820312 109.789062 166.453125 109.789062 Z M 130.015625 29.707031 C 139.917969 29.707031 146.964844 36.152344 147.472656 36.660156 L 147.472656 30.71875 L 163.535156 30.71875 L 163.535156 94.746094 L 147.472656 94.746094 L 147.472656 88.804688 C 147.027344 89.375 140.871094 95.757812 130.015625 95.757812 C 104.875 95.757812 98.210938 74.394531 98.210938 62.636719 C 98.210938 51.007812 105.828125 29.707031 130.015625 29.707031 Z M 114.335938 62.636719 C 114.335938 72.941406 121 81.347656 131.410156 81.347656 C 142.203125 81.347656 148.488281 72.941406 148.488281 62.636719 C 148.488281 52.460938 141.949219 44.117188 131.410156 44.117188 C 120.808594 44.117188 114.335938 52.335938 114.335938 62.636719 Z M 90.972656 54.738281 L 90.972656 10.683594 L 74.910156 10.683594 L 74.910156 94.746094 L 90.972656 94.746094 Z M 192.421875 30.71875 L 192.421875 94.746094 L 176.359375 94.746094 L 176.359375 30.71875 Z M 192.421875 30.71875 "/>
<path style=" stroke:none;fill-rule:nonzero;fill:rgb(18.431373%,41.176471%,100%);fill-opacity:1;" d="M 435.691406 30.714844 L 435.691406 78.753906 L 451.753906 78.753906 L 451.753906 94.742188 L 500 94.742188 L 500 30.714844 Z M 483.9375 78.753906 L 451.753906 78.753906 L 451.753906 46.707031 L 483.9375 46.707031 Z M 483.9375 78.753906 "/>
</g>
</svg>
